<svg width="64" height="64" viewBox="0 0 64 64" fill="none" xmlns="http://www.w3.org/2000/svg">
<path d="M41.46 7.09C41.3312 7.03133 41.1915 7.00066 41.05 7H23C22.7377 7.0011 22.4863 7.10526 22.3 7.29C15.3 14.17 12.3 21.37 13.05 29.21V36C13.0511 37.8602 13.6286 39.6745 14.703 41.193C15.7775 42.7116 17.2961 43.8599 19.05 44.48V52C19.05 54.3869 19.9982 56.6761 21.686 58.364C23.3739 60.0518 25.663 61 28.05 61H36.05C38.4369 61 40.7261 60.0518 42.414 58.364C44.1018 56.6761 45.05 54.3869 45.05 52V44.48C46.7945 43.8516 48.3024 42.6998 49.3674 41.1819C50.4324 39.664 51.0026 37.8542 51 36V29.38C51.41 20.67 50.59 11.22 41.46 7.09Z" fill="url(#paint0_linear_40_3358)"/>
<path d="M20.25 3H12.17C6.46 3 3 16.2 3 22C3 32.91 3.69 43 8.67 43C13.65 43 14.04 38.6 14.47 34C14.9 29.4 15.47 23.52 19.91 18.73C22.79 15.64 25.03 10.47 23.53 5.87C22.92 4 21.81 3 20.25 3Z" fill="url(#paint1_linear_40_3358)"/>
<path d="M51.83 3H43.75C42.19 3 41.08 4 40.47 5.82C38.97 10.42 41.21 15.59 44.09 18.68C48.56 23.47 49.09 29.28 49.53 33.95C49.97 38.62 50.36 42.95 55.33 42.95C60.3 42.95 61 32.91 61 22C61 16.2 57.54 3 51.83 3Z" fill="url(#paint2_linear_40_3358)"/>
<path d="M32 47C31 47 26 47.14 26 50C26 52.39 28.73 54.39 31 54.88V61H33V54.88C35.27 54.39 38 52.39 38 50C38 47.14 33 47 32 47Z" fill="url(#paint3_linear_40_3358)"/>
<path d="M24 33C25.933 33 27.5 30.5376 27.5 27.5C27.5 24.4624 25.933 22 24 22C22.067 22 20.5 24.4624 20.5 27.5C20.5 30.5376 22.067 33 24 33Z" fill="url(#paint4_linear_40_3358)"/>
<path d="M40 33C41.933 33 43.5 30.5376 43.5 27.5C43.5 24.4624 41.933 22 40 22C38.067 22 36.5 24.4624 36.5 27.5C36.5 30.5376 38.067 33 40 33Z" fill="url(#paint5_linear_40_3358)"/>
<defs>
<linearGradient id="paint0_linear_40_3358" x1="31.98" y1="7" x2="31.98" y2="61" gradientUnits="userSpaceOnUse">
<stop stop-color="#FFC033"/>
<stop offset="1" stop-color="#EF8E2E"/>
</linearGradient>
<linearGradient id="paint1_linear_40_3358" x1="13.5" y1="3" x2="13.5" y2="43" gradientUnits="userSpaceOnUse">
<stop stop-color="#CE7F20"/>
<stop offset="1" stop-color="#B2500D"/>
</linearGradient>
<linearGradient id="paint2_linear_40_3358" x1="50.5" y1="-2.3853e-07" x2="50.5" y2="43" gradientUnits="userSpaceOnUse">
<stop stop-color="#CE7F20"/>
<stop offset="1" stop-color="#B2500D"/>
</linearGradient>
<linearGradient id="paint3_linear_40_3358" x1="32" y1="47" x2="32" y2="61" gradientUnits="userSpaceOnUse">
<stop stop-color="#002237"/>
<stop offset="1" stop-color="#003352"/>
</linearGradient>
<linearGradient id="paint4_linear_40_3358" x1="24" y1="22" x2="24" y2="33" gradientUnits="userSpaceOnUse">
<stop stop-color="#002237"/>
<stop offset="1" stop-color="#003352"/>
</linearGradient>
<linearGradient id="paint5_linear_40_3358" x1="40" y1="22" x2="40" y2="33" gradientUnits="userSpaceOnUse">
<stop stop-color="#002237"/>
<stop offset="1" stop-color="#003352"/>
</linearGradient>
</defs>
</svg>
