<svg width="64" height="64" viewBox="0 0 64 64" fill="none" xmlns="http://www.w3.org/2000/svg">
<path d="M27.1667 51.3334V56.1667C27.1667 56.1667 27.1667 61 32.0001 61C36.8334 61 36.8334 56.1667 36.8334 56.1667V51.3334H27.1667Z" fill="#DD2E44"/>
<path d="M25.5555 6.22233C25.6216 1.389 3 3.00011 3 19.1112C3 25.5556 3 41.6667 7.83333 41.6667C14.2778 41.6667 25.4669 12.6668 25.5555 6.22233ZM38.4444 6.22233C38.3783 1.389 60.9999 3.00011 60.9999 19.1112C60.9999 25.5556 60.9999 41.6667 56.1666 41.6667C49.7222 41.6667 38.533 12.6668 38.4444 6.22233Z" fill="#272B2B"/>
<path d="M52.9445 38.4445C52.9445 49.7223 46.5001 49.7223 46.5001 49.7223H17.5001C17.5001 49.7223 11.0557 49.7223 11.0557 38.4445C11.0557 38.4445 12.6668 3.00014 32.0001 3.00014C51.3334 3.00014 52.9445 38.4445 52.9445 38.4445Z" fill="#CCD6DD"/>
<path d="M40.0555 38.4848V38.4445H23.9444V38.4848C22.462 38.619 21.0372 39.1245 19.8017 39.9547C18.5662 40.7849 17.5598 41.913 16.8755 43.2349C16.1911 44.5568 15.8508 46.0298 15.886 47.5179C15.9212 49.006 16.3308 50.4612 17.077 51.7492C17.8231 53.0372 18.8818 54.1164 20.1552 54.8873C21.4286 55.6581 22.8756 56.0956 24.3628 56.1595C25.8499 56.2234 27.3292 55.9116 28.664 55.2528C29.9988 54.594 31.1461 53.6095 32 52.3903C32.8155 53.5566 33.9004 54.5088 35.1625 55.1663C36.4247 55.8237 37.8268 56.1669 39.25 56.1667C41.5237 56.1571 43.7068 55.2737 45.3475 53.6994C46.9882 52.1252 47.9609 49.9804 48.0643 47.709C48.1678 45.4375 47.3942 43.2132 45.9034 41.4963C44.4127 39.7793 42.319 38.7011 40.0555 38.4848Z" fill="#8899A6"/>
<path d="M20.7222 28.7779C20.7222 28.7779 20.7222 25.5557 23.9444 25.5557C27.1666 25.5557 27.1666 28.7779 27.1666 28.7779V32.0001C27.1666 32.0001 27.1666 35.2224 23.9444 35.2224C20.7222 35.2224 20.7222 32.0001 20.7222 32.0001V28.7779ZM36.8333 28.7779C36.8333 28.7779 36.8333 25.5557 40.0555 25.5557C43.2777 25.5557 43.2777 28.7779 43.2777 28.7779V32.0001C43.2777 32.0001 43.2777 35.2224 40.0555 35.2224C36.8333 35.2224 36.8333 32.0001 36.8333 32.0001V28.7779ZM27.1666 41.6668C25.5555 43.2779 30.3888 48.1112 31.9999 48.1112C33.611 48.1112 38.4444 43.2779 36.8333 41.6668C35.2221 40.0557 28.7777 40.0557 27.1666 41.6668Z" fill="#272B2B"/>
</svg>
