<svg width="64" height="64" viewBox="0 0 64 64" fill="none" xmlns="http://www.w3.org/2000/svg">
<path d="M23.88 9.96V14.6C23.88 18.2918 22.4134 21.8324 19.8029 24.4429C17.1924 27.0534 13.6518 28.52 9.96 28.52C8.11409 28.52 6.34379 27.7867 5.03854 26.4815C3.73328 25.1762 3 23.4059 3 21.56V16.92C3 13.2282 4.46657 9.68758 7.07707 7.07707C9.68758 4.46657 13.2282 3 16.92 3C18.6056 3.00218 20.2332 3.61602 21.5004 4.72752C22.7677 5.83902 23.5885 7.37265 23.8104 9.0436C23.8571 9.34683 23.8803 9.6532 23.88 9.96ZM61 16.92V21.56C61 23.4059 60.2667 25.1762 58.9615 26.4815C57.6562 27.7867 55.8859 28.52 54.04 28.52C50.3482 28.52 46.8076 27.0534 44.1971 24.4429C41.5866 21.8324 40.12 18.2918 40.12 14.6V9.96C40.1197 9.6532 40.1429 9.34683 40.1896 9.0436C40.4115 7.37265 41.2323 5.83902 42.4996 4.72752C43.7668 3.61602 45.3944 3.00218 47.08 3C50.7718 3 54.3124 4.46657 56.9229 7.07707C59.5334 9.68758 61 13.2282 61 16.92Z" fill="#965500"/>
<path d="M56.3599 32V51.72C56.3599 54.1812 55.3822 56.5416 53.6418 58.2819C51.9015 60.0223 49.5411 61 47.0799 61H16.9199C14.4587 61 12.0983 60.0223 10.3579 58.2819C8.6176 56.5416 7.63989 54.1812 7.63989 51.72V32C7.64194 30.734 7.73887 29.4699 7.92989 28.2184C8.58794 28.4187 9.27204 28.5203 9.95989 28.52C13.6517 28.52 17.1923 27.0534 19.8028 24.4429C22.4133 21.8324 23.8799 18.2918 23.8799 14.6V9.95997C23.8802 9.65317 23.8569 9.3468 23.8103 9.04357C29.1096 7.17196 34.8902 7.17196 40.1895 9.04357C40.1428 9.3468 40.1196 9.65317 40.1199 9.95997V14.6C40.1199 18.2918 41.5865 21.8324 44.197 24.4429C46.8075 27.0534 50.3481 28.52 54.0399 28.52C54.7277 28.5203 55.4118 28.4187 56.0699 28.2184C56.2609 29.4699 56.3579 30.734 56.3599 32Z" fill="#EFC589"/>
<path d="M44.76 50.5601V54.04C44.76 55.886 44.0267 57.6563 42.7215 58.9615C41.4162 60.2668 39.6459 61 37.8 61H26.2C24.3541 61 22.5838 60.2668 21.2785 58.9615C19.9733 57.6563 19.24 55.886 19.24 54.04V50.5601C19.2407 47.7832 20.1473 45.0825 21.8221 42.8676C23.4969 40.6527 25.8484 39.0446 28.52 38.2872C28.5146 38.3101 28.5146 38.334 28.52 38.3568C28.5146 38.6709 28.595 38.9805 28.7523 39.2523C28.9097 39.5241 29.1382 39.7479 29.4132 39.8997L32 41.28L34.5868 39.8997C34.8618 39.7479 35.0903 39.5241 35.2476 39.2523C35.405 38.9805 35.4853 38.6709 35.48 38.3568C35.4854 38.334 35.4854 38.3101 35.48 38.2872C38.1515 39.0446 40.5031 40.6527 42.1779 42.8676C43.8527 45.0825 44.7592 47.7832 44.76 50.5601Z" fill="#B19267"/>
<path d="M22.1399 30.84C23.1009 30.84 23.8799 30.061 23.8799 29.1C23.8799 28.139 23.1009 27.36 22.1399 27.36C21.1789 27.36 20.3999 28.139 20.3999 29.1C20.3999 30.061 21.1789 30.84 22.1399 30.84Z" fill="#2D2D2D"/>
<path d="M41.8601 30.84C42.8211 30.84 43.6001 30.061 43.6001 29.1C43.6001 28.139 42.8211 27.36 41.8601 27.36C40.8991 27.36 40.1201 28.139 40.1201 29.1C40.1201 30.061 40.8991 30.84 41.8601 30.84Z" fill="#2D2D2D"/>
<path d="M32.0001 55.2C31.6924 55.2 31.3974 55.0778 31.1798 54.8602C30.9623 54.6427 30.8401 54.3476 30.8401 54.04V40.12C30.8401 39.8123 30.9623 39.5173 31.1798 39.2997C31.3974 39.0822 31.6924 38.96 32.0001 38.96C32.3077 38.96 32.6028 39.0822 32.8203 39.2997C33.0379 39.5173 33.1601 39.8123 33.1601 40.12V54.04C33.1601 54.3476 33.0379 54.6427 32.8203 54.8602C32.6028 55.0778 32.3077 55.2 32.0001 55.2Z" fill="#3E2C27"/>
<path d="M35.4799 38.3568C35.4853 38.6708 35.405 38.9804 35.2476 39.2522C35.0902 39.5241 34.8618 39.7479 34.5867 39.8996L31.9999 41.28L29.4131 39.8996C29.1381 39.7479 28.9097 39.5241 28.7523 39.2522C28.5949 38.9804 28.5146 38.6708 28.5199 38.3568C28.5145 38.3339 28.5145 38.3101 28.5199 38.2872C28.5198 37.8563 28.6886 37.4425 28.99 37.1346C29.2914 36.8267 29.7015 36.6491 30.1323 36.64H33.8675C34.2983 36.6491 34.7084 36.8267 35.0099 37.1346C35.3113 37.4425 35.48 37.8563 35.4799 38.2872C35.4854 38.3101 35.4854 38.3339 35.4799 38.3568Z" fill="#3E2C27"/>
</svg>
