<svg width="24" height="24" viewBox="0 0 24 24" fill="none" xmlns="http://www.w3.org/2000/svg">
<path d="M15.175 8.32501C15.6583 8.80834 16.0125 9.35834 16.2375 9.97501C16.4625 10.5917 16.5417 11.225 16.475 11.875C16.475 12.125 16.3833 12.3375 16.2 12.5125C16.0167 12.6875 15.8 12.775 15.55 12.775C15.3 12.775 15.0875 12.6875 14.9125 12.5125C14.7375 12.3375 14.65 12.125 14.65 11.875C14.7333 11.4417 14.7083 11.025 14.575 10.625C14.4417 10.225 14.2333 9.88334 13.95 9.60001C13.6667 9.31667 13.325 9.10001 12.925 8.95001C12.525 8.80001 12.1 8.76667 11.65 8.85001C11.4 8.85001 11.1875 8.75834 11.0125 8.57501C10.8375 8.39167 10.75 8.17501 10.75 7.92501C10.75 7.67501 10.8375 7.46251 11.0125 7.28751C11.1875 7.11251 11.4 7.02501 11.65 7.02501C12.2833 6.95834 12.9083 7.03751 13.525 7.26251C14.1417 7.48751 14.6917 7.84167 15.175 8.32501ZM12 6.00001C11.6833 6.00001 11.375 6.01251 11.075 6.03751C10.775 6.06251 10.475 6.10834 10.175 6.17501C9.89167 6.22501 9.6375 6.18334 9.4125 6.05001C9.1875 5.91667 9.03333 5.71667 8.95 5.45001C8.86667 5.18334 8.89583 4.92501 9.0375 4.67501C9.17917 4.42501 9.38333 4.27501 9.65 4.22501C10.0333 4.14167 10.4208 4.08334 10.8125 4.05001C11.2042 4.01667 11.6 4.00001 12 4.00001C14.2833 4.00001 16.3708 4.60001 18.2625 5.80001C20.1542 7.00001 21.6 8.61667 22.6 10.65C22.6667 10.7833 22.7167 10.9208 22.75 11.0625C22.7833 11.2042 22.8 11.35 22.8 11.5C22.8 11.65 22.7875 11.7958 22.7625 11.9375C22.7375 12.0792 22.6917 12.2167 22.625 12.35C22.325 13.0167 21.9542 13.6417 21.5125 14.225C21.0708 14.8083 20.5833 15.3417 20.05 15.825C19.85 16.0083 19.6167 16.0833 19.35 16.05C19.0833 16.0167 18.8667 15.8833 18.7 15.65C18.5333 15.4167 18.4625 15.1625 18.4875 14.8875C18.5125 14.6125 18.625 14.3833 18.825 14.2C19.225 13.8167 19.5917 13.4 19.925 12.95C20.2583 12.5 20.55 12.0167 20.8 11.5C19.9667 9.81667 18.7625 8.47917 17.1875 7.48751C15.6125 6.49584 13.8833 6.00001 12 6.00001ZM12 19C9.76667 19 7.725 18.3958 5.875 17.1875C4.025 15.9792 2.56667 14.3917 1.5 12.425C1.41667 12.2917 1.35417 12.1458 1.3125 11.9875C1.27083 11.8292 1.25 11.6667 1.25 11.5C1.25 11.3333 1.26667 11.175 1.3 11.025C1.33333 10.875 1.39167 10.725 1.475 10.575C1.80833 9.90834 2.19583 9.27084 2.6375 8.66251C3.07917 8.05417 3.58333 7.50001 4.15 7.00001L2.075 4.90001C1.89167 4.70001 1.80417 4.46251 1.8125 4.18751C1.82083 3.91251 1.91667 3.68334 2.1 3.50001C2.28333 3.31667 2.51667 3.22501 2.8 3.22501C3.08333 3.22501 3.31667 3.31667 3.5 3.50001L20.5 20.5C20.6833 20.6833 20.7792 20.9125 20.7875 21.1875C20.7958 21.4625 20.7 21.7 20.5 21.9C20.3167 22.0833 20.0833 22.175 19.8 22.175C19.5167 22.175 19.2833 22.0833 19.1 21.9L15.6 18.45C15.0167 18.6333 14.425 18.7708 13.825 18.8625C13.225 18.9542 12.6167 19 12 19ZM5.55 8.40001C5.06667 8.83334 4.625 9.30834 4.225 9.82501C3.825 10.3417 3.48333 10.9 3.2 11.5C4.03333 13.1833 5.2375 14.5208 6.8125 15.5125C8.3875 16.5042 10.1167 17 12 17C12.3333 17 12.6583 16.9792 12.975 16.9375C13.2917 16.8958 13.6167 16.85 13.95 16.8L13.05 15.85C12.8667 15.9 12.6917 15.9375 12.525 15.9625C12.3583 15.9875 12.1833 16 12 16C10.75 16 9.6875 15.5625 8.8125 14.6875C7.9375 13.8125 7.5 12.75 7.5 11.5C7.5 11.3167 7.5125 11.1417 7.5375 10.975C7.5625 10.8083 7.6 10.6333 7.65 10.45L5.55 8.40001Z" fill="#303030"/>
</svg>
