<svg width="48" height="48" viewBox="0 0 48 48" fill="none" xmlns="http://www.w3.org/2000/svg">
<mask id="mask0_64_2637" style="mask-type:luminance" maskUnits="userSpaceOnUse" x="0" y="0" width="48" height="48">
<path fill-rule="evenodd" clip-rule="evenodd" d="M0 47.9988V0H47.9988V47.9988H0Z" fill="white"/>
</mask>
<g mask="url(#mask0_64_2637)">
<mask id="mask1_64_2637" style="mask-type:luminance" maskUnits="userSpaceOnUse" x="0" y="0" width="48" height="48">
<path fill-rule="evenodd" clip-rule="evenodd" d="M0 47.9988H47.9988V0H0V47.9988Z" fill="white"/>
</mask>
<g mask="url(#mask1_64_2637)">
<mask id="mask2_64_2637" style="mask-type:luminance" maskUnits="userSpaceOnUse" x="0" y="0" width="48" height="48">
<path fill-rule="evenodd" clip-rule="evenodd" d="M0 0V47.9988H47.9988V0H0Z" fill="white"/>
</mask>
<g mask="url(#mask2_64_2637)">
<path d="M29.3229 7.33996C31.3925 7.33996 33.0701 10.4881 33.0701 13.1555C33.0701 15.8229 31.3925 17.9853 29.3229 17.9853C27.2534 17.9853 25.5757 15.8229 25.5757 13.1555C25.5757 10.4881 27.2534 7.33996 29.3229 7.33996Z" fill="white"/>
<path d="M18.6759 7.33996C20.7454 7.33996 22.4232 10.4881 22.4232 13.1555C22.4232 15.8229 20.7454 17.9853 18.6759 17.9853C16.6064 17.9853 14.9287 15.8229 14.9287 13.1555C14.9287 10.4881 16.6064 7.33996 18.6759 7.33996Z" fill="white"/>
<path d="M7.45394 21.4074C6.57504 19.207 6.95995 16.042 8.71435 15.3412C10.4688 14.6405 12.9283 16.6693 13.8072 18.8696C14.6861 21.07 13.9763 23.4218 12.2219 24.1225C10.4675 24.8234 8.33284 23.6077 7.45394 21.4074Z" fill="white"/>
<path d="M40.545 21.4074C39.6661 23.6077 37.5314 24.8234 35.7769 24.1225C34.0225 23.4218 33.3128 21.07 34.1917 18.8696C35.0705 16.6693 37.5301 14.6405 39.2845 15.3412C41.039 16.042 41.4238 19.207 40.545 21.4074Z" fill="white"/>
<path d="M37.4054 33.5617C37.0036 31.7595 36.0456 30.1344 34.9858 28.6282C32.503 25.0997 28.5264 21.5366 23.9994 21.5366C19.4911 21.5366 15.4964 25.0989 13.0131 28.6282C11.9533 30.1344 10.9953 31.7595 10.5934 33.5617C10.1915 35.3638 10.4113 37.379 11.5277 38.843C12.6441 40.307 14.7588 41.0378 16.4125 40.2454C17.3957 39.7744 18.1914 38.8241 19.2761 38.7328C20.2718 38.649 21.1518 39.3196 21.9823 39.8802C22.5825 40.2854 23.3061 40.6542 23.9994 40.659C24.6927 40.6542 25.4163 40.2854 26.0166 39.8802C26.847 39.3196 27.727 38.649 28.7227 38.7328C29.8074 38.8241 30.6031 39.7744 31.5863 40.2454C33.24 41.0378 35.3547 40.307 36.4712 38.843C37.5875 37.379 37.8073 35.3638 37.4054 33.5617ZM27.943 31.391C27.4322 32.3243 26.626 33.1465 25.9453 33.786C25.5794 34.1299 25.1951 34.4517 24.7946 34.7491C24.7938 34.7497 24.7931 34.7502 24.7922 34.7509C24.3217 35.0972 23.6771 35.0972 23.2066 34.7509C23.2058 34.7502 23.205 34.7497 23.2042 34.7491C22.8038 34.4517 22.4194 34.1299 22.0535 33.786C21.3728 33.1465 20.5667 32.3243 20.0559 31.391C19.634 30.62 19.4137 29.7733 19.632 28.8911C19.8413 28.0454 20.5088 27.3026 21.3272 27.1989C22.2735 27.0789 23.3753 27.7448 23.9994 28.5098C24.6235 27.7448 25.7253 27.0789 26.6716 27.1989C27.4901 27.3026 28.1575 28.0454 28.3668 28.8911C28.5851 29.7733 28.3648 30.62 27.943 31.391Z" fill="white"/>
</g>
</g>
</g>
</svg>
