<svg width="48" height="48" viewBox="0 0 48 48" fill="none" xmlns="http://www.w3.org/2000/svg">
<mask id="mask0_40_3673" style="mask-type:luminance" maskUnits="userSpaceOnUse" x="0" y="0" width="48" height="48">
<path fill-rule="evenodd" clip-rule="evenodd" d="M0 47.9988V0H47.9988V47.9988H0Z" fill="white"/>
</mask>
<g mask="url(#mask0_40_3673)">
<mask id="mask1_40_3673" style="mask-type:luminance" maskUnits="userSpaceOnUse" x="0" y="0" width="48" height="48">
<path fill-rule="evenodd" clip-rule="evenodd" d="M0 47.9988H47.9988V0H0V47.9988Z" fill="white"/>
</mask>
<g mask="url(#mask1_40_3673)">
<mask id="mask2_40_3673" style="mask-type:luminance" maskUnits="userSpaceOnUse" x="0" y="0" width="48" height="48">
<path fill-rule="evenodd" clip-rule="evenodd" d="M0 0V47.9988H47.9988V0H0Z" fill="white"/>
</mask>
<g mask="url(#mask2_40_3673)">
<path d="M29.3229 7.3399C31.3925 7.3399 33.0701 10.4881 33.0701 13.1555C33.0701 15.8229 31.3925 17.9852 29.3229 17.9852C27.2534 17.9852 25.5757 15.8229 25.5757 13.1555C25.5757 10.4881 27.2534 7.3399 29.3229 7.3399Z" fill="#457B9D"/>
<path d="M18.6759 7.3399C20.7454 7.3399 22.4232 10.4881 22.4232 13.1555C22.4232 15.8229 20.7454 17.9852 18.6759 17.9852C16.6064 17.9852 14.9287 15.8229 14.9287 13.1555C14.9287 10.4881 16.6064 7.3399 18.6759 7.3399Z" fill="#457B9D"/>
<path d="M7.45382 21.4074C6.57492 19.2071 6.95983 16.0421 8.71423 15.3413C10.4687 14.6405 12.9282 16.6694 13.8071 18.8697C14.686 21.07 13.9762 23.4219 12.2218 24.1226C10.4674 24.8234 8.33272 23.6078 7.45382 21.4074Z" fill="#457B9D"/>
<path d="M40.5449 21.4074C39.6659 23.6078 37.5312 24.8234 35.7768 24.1226C34.0224 23.4219 33.3127 21.07 34.1916 18.8697C35.0704 16.6694 37.53 14.6405 39.2844 15.3413C41.0389 16.0421 41.4237 19.2071 40.5449 21.4074Z" fill="#457B9D"/>
<path d="M37.4054 33.5616C37.0036 31.7595 36.0456 30.1343 34.9858 28.6282C32.503 25.0996 28.5264 21.5365 23.9994 21.5365C19.4911 21.5365 15.4964 25.0988 13.0131 28.6282C11.9533 30.1343 10.9953 31.7595 10.5934 33.5616C10.1915 35.3637 10.4113 37.3789 11.5277 38.8429C12.6441 40.3069 14.7588 41.0377 16.4125 40.2453C17.3957 39.7743 18.1914 38.8241 19.2761 38.7328C20.2718 38.6489 21.1518 39.3195 21.9823 39.8802C22.5825 40.2853 23.3061 40.6541 23.9994 40.6589C24.6927 40.6541 25.4163 40.2853 26.0166 39.8802C26.847 39.3195 27.727 38.6489 28.7227 38.7328C29.8074 38.8241 30.6031 39.7743 31.5863 40.2453C33.24 41.0377 35.3547 40.3069 36.4712 38.8429C37.5875 37.3789 37.8073 35.3637 37.4054 33.5616ZM27.943 31.3909C27.4322 32.3242 26.626 33.1464 25.9453 33.786C25.5794 34.1298 25.1951 34.4517 24.7946 34.749C24.7938 34.7496 24.7931 34.7502 24.7922 34.7508C24.3217 35.0971 23.6771 35.0971 23.2066 34.7508C23.2058 34.7502 23.205 34.7496 23.2042 34.749C22.8038 34.4517 22.4194 34.1298 22.0535 33.786C21.3728 33.1464 20.5667 32.3242 20.0559 31.3909C19.634 30.6199 19.4137 29.7733 19.632 28.891C19.8413 28.0454 20.5088 27.3025 21.3272 27.1988C22.2735 27.0789 23.3753 27.7448 23.9994 28.5097C24.6235 27.7448 25.7253 27.0789 26.6716 27.1988C27.4901 27.3025 28.1575 28.0454 28.3668 28.891C28.5851 29.7733 28.3648 30.6199 27.943 31.3909Z" fill="#457B9D"/>
</g>
</g>
</g>
</svg>
