<svg width="480" height="357" viewBox="0 0 480 357" fill="none" xmlns="http://www.w3.org/2000/svg">
<path d="M107.533 0.685833C65.5701 4.07956 25.6455 51.8389 48.893 118.602C72.1406 185.365 129.402 196.746 134.403 252.394C139.405 308.041 261.341 382.012 377.349 306.089C493.358 230.166 457.24 161.407 413.68 129.691C363.009 92.7972 314.686 132.389 262.493 99.8651C210.3 67.3411 214.369 -7.95466 107.533 0.685833Z" fill="#CEE5EA"/>
<path d="M413.096 196.669L403.616 191.426C399.209 222.028 409.931 248.871 409.931 248.871C409.931 248.871 421.917 236.536 430.872 217.139L423.416 216.93L435.415 205.736C436.761 201.752 437.906 197.566 438.769 193.204C440.073 186.611 440.629 180.13 440.684 173.989L428.017 176.862L440.466 165.82C439.235 145.6 433.299 130.73 433.299 130.73C433.299 130.73 426.691 137.535 419.618 148.985L422.731 163.844L416.34 154.613C412.133 162.255 408.09 171.423 405.532 181.669L413.096 196.669Z" fill="#295A40"/>
<path d="M410.875 244.443L432.499 135.121" stroke="#4CA676" stroke-width="2.1202" stroke-miterlimit="10" stroke-linecap="round" stroke-linejoin="round"/>
<path d="M422.313 186.617L412.076 170.007" stroke="#4CA676" stroke-width="2.1202" stroke-miterlimit="10" stroke-linecap="round" stroke-linejoin="round"/>
<path d="M434.209 191.291L420.323 196.674" stroke="#4CA676" stroke-width="2.1202" stroke-miterlimit="10" stroke-linecap="round" stroke-linejoin="round"/>
<path d="M436.165 155.559L427.46 160.593" stroke="#4CA676" stroke-width="2.1202" stroke-miterlimit="10" stroke-linecap="round" stroke-linejoin="round"/>
<path d="M429.43 150.633L426.352 144.213" stroke="#4CA676" stroke-width="2.1202" stroke-miterlimit="10" stroke-linecap="round" stroke-linejoin="round"/>
<path d="M416.759 214.698L406.221 199.605" stroke="#4CA676" stroke-width="2.1202" stroke-miterlimit="10" stroke-linecap="round" stroke-linejoin="round"/>
<path d="M413.455 231.4L422.364 224.893" stroke="#4CA676" stroke-width="2.1202" stroke-miterlimit="10" stroke-linecap="round" stroke-linejoin="round"/>
<path d="M432.437 241.084L426.115 232.279C409.033 258.038 407.23 286.891 407.23 286.891C407.23 286.891 423.34 280.888 439.735 267.206L433.087 263.818L448.721 258.852C451.642 255.83 454.469 252.539 457.116 248.968C461.117 243.571 464.393 237.954 467.072 232.429L454.397 229.59L470.372 224.955C477.916 206.158 478.918 190.176 478.918 190.176C478.918 190.176 470.034 193.489 458.742 200.8L455.194 215.561L453.372 204.478C446.299 209.577 438.721 216.127 432.024 224.286L432.437 241.084Z" fill="#295A40"/>
<path d="M409.979 283.296L476.315 193.8" stroke="#4CA676" stroke-width="2.1202" stroke-miterlimit="10" stroke-linecap="round" stroke-linejoin="round"/>
<path d="M445.067 235.957L442.929 216.557" stroke="#4CA676" stroke-width="2.1202" stroke-miterlimit="10" stroke-linecap="round" stroke-linejoin="round"/>
<path d="M453.815 245.283L438.965 244.19" stroke="#4CA676" stroke-width="2.1202" stroke-miterlimit="10" stroke-linecap="round" stroke-linejoin="round"/>
<path d="M470.879 213.839L460.859 214.652" stroke="#4CA676" stroke-width="2.1202" stroke-miterlimit="10" stroke-linecap="round" stroke-linejoin="round"/>
<path d="M466.903 206.498L466.869 199.377" stroke="#4CA676" stroke-width="2.1202" stroke-miterlimit="10" stroke-linecap="round" stroke-linejoin="round"/>
<path d="M428.028 258.945L424.968 240.787" stroke="#4CA676" stroke-width="2.1202" stroke-miterlimit="10" stroke-linecap="round" stroke-linejoin="round"/>
<path d="M417.893 272.618L428.728 270.561" stroke="#4CA676" stroke-width="2.1202" stroke-miterlimit="10" stroke-linecap="round" stroke-linejoin="round"/>
<path d="M432.703 209.674L424.592 200.545C407.968 233.73 409.004 267.749 409.004 267.749C409.004 267.749 426.636 257.807 443.771 238.847L435.869 236.101L453.072 227.457C456.062 223.396 458.917 219.039 461.538 214.388C465.5 207.357 468.616 200.203 471.064 193.264L456.384 192.256L474.009 183.935C480.558 160.615 479.987 141.771 479.987 141.771C479.987 141.771 470.265 147.257 458.237 157.849L455.789 175.73L452.538 163.122C445.06 170.363 437.165 179.389 430.44 190.136L432.703 209.674Z" fill="#4CA676"/>
<path d="M411.738 263.05L477.422 146.476" stroke="#295A40" stroke-width="2.1202" stroke-miterlimit="10"/>
<path d="M446.482 201.388L441.983 179.126" stroke="#295A40" stroke-width="2.1202" stroke-miterlimit="10"/>
<path d="M457.4 210.686L440.439 212.112" stroke="#295A40" stroke-width="2.1202" stroke-miterlimit="10"/>
<path d="M473.396 170.864L462.118 173.638" stroke="#295A40" stroke-width="2.1202" stroke-miterlimit="10"/>
<path d="M468.102 163.017L467.303 154.708" stroke="#295A40" stroke-width="2.1202" stroke-miterlimit="10"/>
<path d="M429.61 231.332L424.2 210.687" stroke="#295A40" stroke-width="2.1202" stroke-miterlimit="10"/>
<path d="M419.574 249.142L431.645 244.767" stroke="#295A40" stroke-width="2.1202" stroke-miterlimit="10"/>
<path d="M419.774 336.315C415.326 347.115 321.336 344.217 261.233 342.666H261.217C240.502 342.131 223.825 341.762 216.202 342.168C189.986 343.571 164.696 341.965 166.331 336.315C167.966 330.666 181.687 323.632 179.392 299.429C174.881 251.909 182.976 183.305 188.398 145.459C190.819 128.529 192.721 117.766 192.721 117.766L402.359 112.265C413.236 136.523 410.517 271.312 410.941 295.589C411.365 319.866 425.747 321.786 419.774 336.315Z" fill="#397CB3"/>
<path d="M290.247 174.093C287.638 194.585 219.22 187.755 215.401 209.908C211.582 232.062 201.554 299.706 215.401 320.217C227.723 338.457 255.292 342.076 261.217 342.666C240.502 342.131 223.825 341.762 216.202 342.168C189.986 343.571 164.697 341.965 166.331 336.315C167.966 330.666 181.687 323.632 179.392 299.429C174.881 251.908 182.976 183.305 188.398 145.458C232.407 151.09 291.897 161.133 290.247 174.093Z" fill="#2D628C"/>
<path d="M345.682 190.579C318.664 187.127 302.082 176.124 272.659 183.545C243.221 190.967 218.214 183.047 202.293 183.508C186.371 183.988 177.946 179.428 178.213 168.425C178.355 162.61 180.917 158.678 183.054 154.616C184.956 151.016 186.528 147.305 185.836 142.044C185.758 141.49 185.695 140.936 185.648 140.382C184.437 129.859 185.207 120.609 191.007 110.4C191.007 110.4 400.049 96.2957 405.047 101.428C410.029 106.56 412.638 117.526 410.925 125.428C410.784 126.074 410.658 126.739 410.564 127.422C410.564 127.422 410.564 127.422 410.564 127.441C410.548 127.496 410.532 127.662 410.501 127.921C409.652 134.179 410.281 142.247 412.89 151.441C413.471 153.546 414.179 155.724 414.98 157.939C419.79 171.176 372.7 194.05 345.682 190.579Z" fill="#418ECC"/>
<path d="M341.048 142.94C337.505 142.94 334.06 142.749 330.806 142.374C325.805 141.797 320.849 141.168 315.949 140.546C300.706 138.612 286.308 136.783 272.784 136.783C264.015 136.783 256.433 137.559 249.607 139.156C244.621 140.323 239.144 140.912 233.326 140.912C233.326 140.912 233.326 140.912 233.325 140.912C217.207 140.912 197.395 135.95 190.718 126.469C188.071 122.712 187.97 119.128 188.351 116.78C190.705 102.287 211.96 97.6246 244.118 92.1654C249.884 91.1864 255.329 90.2635 260.11 89.2754C270.911 87.0451 278.719 86.0933 286.217 86.0933C293.601 86.0933 300.715 86.9948 310.562 88.2406C312.989 88.5488 315.597 88.8788 318.433 89.2248C327.457 90.3229 334.043 91.5541 339.853 92.6412C347.583 94.0872 353.169 95.1311 360.515 95.1311C363.588 95.1311 366.832 94.9455 370.433 94.5596C375.425 94.0259 381.187 93.4816 386.074 93.4816C392.225 93.4816 399.82 94.1991 404.001 99.799C406.455 103.086 407.39 107.506 406.782 112.94C404.698 131.526 367.092 142.94 341.048 142.94Z" fill="#418ECC"/>
<path d="M402.471 110.956C402.449 111.38 402.413 111.818 402.362 112.271C402.077 114.836 400.632 117.357 398.296 119.783C397.705 120.382 397.07 120.981 396.377 121.558C395.61 122.216 394.778 122.852 393.888 123.473C391.64 125.058 389.027 126.556 386.114 127.959H386.107C384.049 128.953 381.837 129.881 379.509 130.751C379.509 130.751 379.509 130.751 379.502 130.751C378.108 131.277 376.67 131.773 375.203 132.249C374.969 132.322 374.736 132.402 374.495 132.468C368.386 134.404 361.7 135.888 354.905 136.764C354.24 136.859 353.576 136.94 352.905 137.013C352.751 137.027 352.598 137.049 352.445 137.064C347.701 137.575 342.92 137.787 338.278 137.648C338.227 137.648 338.168 137.648 338.117 137.641C336.139 137.597 334.183 137.473 332.278 137.276C331.928 137.254 331.585 137.217 331.234 137.173C331.227 137.173 331.22 137.173 331.213 137.166C330.855 137.137 330.497 137.086 330.147 137.042C329.585 136.976 329.016 136.91 328.454 136.837C326.3 136.589 324.162 136.318 322.031 136.048C322.023 136.041 322.009 136.041 322.001 136.041C321.702 136.004 321.396 135.968 321.096 135.924H321.089C320.783 135.887 320.469 135.851 320.162 135.814H320.155C318.746 135.639 317.33 135.456 315.929 135.281C315.863 135.274 315.783 135.266 315.717 135.252C315.236 135.193 314.754 135.135 314.272 135.069H314.243C313.455 134.967 312.666 134.864 311.878 134.769C310.645 134.609 309.426 134.455 308.207 134.309H308.199C307.426 134.214 306.652 134.119 305.885 134.031C305.294 133.958 304.71 133.885 304.119 133.82C301.645 133.527 299.185 133.249 296.747 133.001C294.164 132.731 291.594 132.49 289.054 132.292C287.96 132.197 286.872 132.117 285.785 132.044C283.588 131.89 281.413 131.766 279.259 131.686C278.486 131.649 277.719 131.627 276.953 131.605C275.369 131.562 273.793 131.547 272.231 131.547C272.216 131.547 272.209 131.547 272.194 131.554C266.487 131.569 260.94 131.927 255.582 132.738C255.13 132.804 254.677 132.862 254.232 132.943C252.984 133.147 251.758 133.374 250.531 133.644C250.086 133.725 249.648 133.82 249.203 133.922C249.05 133.958 248.889 133.995 248.729 134.031C245.524 134.777 242.152 135.259 238.707 135.5C238.532 135.515 238.364 135.522 238.189 135.529C236.401 135.639 234.591 135.69 232.788 135.668C232.474 135.668 232.168 135.668 231.854 135.661C228.489 135.602 225.139 135.325 221.884 134.886C217.84 134.331 213.957 133.498 210.417 132.431H210.41C210.103 132.351 209.804 132.256 209.505 132.161C205.009 130.758 201.111 128.982 198.192 126.958C196.593 125.847 195.294 124.656 194.36 123.407C194.25 123.268 194.148 123.122 194.053 122.976C192.922 121.324 192.433 119.571 192.725 117.766C194.382 107.485 214.68 102.662 235.066 99.023C235.876 98.8768 236.686 98.7307 237.496 98.5919C238.146 98.4823 238.788 98.3726 239.43 98.2631C239.883 98.1827 240.321 98.1096 240.773 98.0366C242.014 97.8173 243.255 97.5981 244.481 97.3862C244.488 97.3862 244.489 97.3862 244.496 97.3862C244.941 97.3132 245.386 97.2328 245.831 97.1669C246.474 97.0574 247.116 96.9476 247.751 96.8381C249.167 96.5969 250.568 96.3485 251.94 96.1146C252.101 96.0853 252.261 96.0636 252.415 96.0342C255.02 95.5739 257.538 95.1134 259.903 94.6312H259.911C260.239 94.5654 260.56 94.4997 260.881 94.4339C261.356 94.3389 261.83 94.2365 262.297 94.1416C263.852 93.8347 265.334 93.5498 266.757 93.294C268.319 93.0163 269.808 92.7679 271.231 92.5486C274.837 92.0079 278.048 91.6572 281.092 91.4818H281.099C286.019 91.1895 290.485 91.3358 295.456 91.7667C295.909 91.8032 296.368 91.8471 296.836 91.891C299.346 92.1323 301.996 92.4317 304.908 92.7899C305.382 92.8483 305.871 92.8994 306.353 92.9726C307.535 93.1187 308.769 93.2795 310.046 93.4477C310.163 93.4623 310.273 93.4768 310.389 93.4916C310.806 93.5427 311.221 93.594 311.645 93.645C311.71 93.6524 311.776 93.667 311.842 93.6742C312.484 93.7546 313.141 93.835 313.805 93.9154C314.119 93.9519 314.433 93.9958 314.747 94.0323C314.827 94.0397 314.9 94.0542 314.98 94.0616C315.214 94.0908 315.447 94.1201 315.681 94.1492C316.426 94.2442 317.192 94.3392 317.973 94.4341C319.279 94.5949 320.535 94.7558 321.746 94.9237H321.754C322.454 95.0187 323.14 95.1137 323.812 95.2086C323.936 95.2232 324.06 95.2451 324.177 95.2597C324.41 95.2962 324.644 95.3256 324.877 95.3621C325.242 95.4205 325.6 95.4718 325.951 95.5229C329.972 96.1294 333.454 96.7577 336.629 97.3351C336.687 97.3497 336.753 97.3571 336.811 97.3716H336.819C338.279 97.642 339.673 97.9049 341.016 98.1607C345.176 98.9281 348.891 99.5783 352.76 99.9655C355.372 100.229 358.059 100.375 361 100.36C363.963 100.338 367.175 100.155 370.831 99.7682C372.78 99.5563 374.656 99.3735 376.451 99.213C378.802 99.0082 381.013 98.8477 383.093 98.7672C383.575 98.7527 384.057 98.7379 384.524 98.7233C389.932 98.6138 394.282 99.0812 397.348 100.601C397.355 100.601 397.355 100.609 397.355 100.609C397.618 100.718 397.859 100.857 398.1 100.996C398.501 101.23 398.874 101.493 399.217 101.77C401.566 103.671 402.712 106.601 402.471 110.956Z" fill="#2D628C"/>
<path d="M266.765 153.342C266.765 153.342 247.779 152.714 233.727 158.53C220.902 163.847 195.251 164.696 183.054 154.616C184.956 151.016 186.528 147.305 185.836 142.044C185.757 141.49 185.695 140.936 185.648 140.382C189.986 145.108 198.536 152.456 210.591 154.136C228.65 156.647 245.091 146.751 266.765 153.342Z" fill="#397CB3"/>
<path d="M412.89 151.44L412.874 151.459C398.603 168.259 370.029 175.81 349.03 164.419C328.032 153.028 298.735 152.253 298.735 152.253C331.773 148.486 351.168 156.96 379.931 152.253C405.99 147.969 409.983 131.059 410.501 127.92C409.652 134.179 410.281 142.246 412.89 151.44Z" fill="#397CB3"/>
<path d="M239.21 175.503C241.391 175.568 243.569 175.499 245.738 175.354C247.906 175.194 250.071 175.006 252.215 174.671C256.508 174.062 260.747 173.111 264.843 171.756C265.868 171.423 266.867 171.015 267.879 170.65C268.886 170.267 269.858 169.804 270.848 169.386C271.348 169.186 271.819 168.928 272.297 168.683L273.728 167.945L275.189 167.187L275.934 166.8C276.184 166.674 276.442 166.568 276.696 166.451C280.773 164.596 285.157 163.624 289.542 163.087C298.346 162.135 307.265 163.046 315.734 165.412C317.846 166.028 319.944 166.694 321.99 167.498C324.031 168.314 326.05 169.187 327.998 170.204C329.937 171.235 331.844 172.328 333.642 173.584C335.441 174.837 337.154 176.207 338.744 177.703C337.036 176.343 335.239 175.111 333.386 173.981C331.529 172.855 329.597 171.864 327.632 170.956C323.695 169.146 319.579 167.765 315.393 166.697C313.293 166.187 311.178 165.749 309.05 165.388C306.918 165.051 304.777 164.771 302.626 164.613C298.329 164.272 294.003 164.286 289.735 164.779C285.477 165.268 281.246 166.206 277.35 167.921C277.107 168.028 276.858 168.125 276.619 168.239L275.907 168.594L274.451 169.315L272.961 170.049C272.465 170.293 271.973 170.549 271.457 170.746L269.925 171.379C269.412 171.582 268.912 171.821 268.383 171.982C267.334 172.326 266.299 172.711 265.242 173.02C261.021 174.295 256.675 175.078 252.313 175.498C250.132 175.714 247.941 175.804 245.755 175.823C243.568 175.838 241.379 175.746 239.21 175.503Z" fill="#397CB3"/>
<path d="M270.318 328.292C275.597 321.606 271.922 309.89 262.108 302.124C252.294 294.358 240.059 293.483 234.78 300.169C229.5 306.856 233.176 318.572 242.99 326.338C252.803 334.104 265.039 334.979 270.318 328.292Z" fill="white"/>
<path d="M272.529 293.826C275.36 290.627 274.183 284.954 269.899 281.155C265.616 277.355 259.849 276.868 257.018 280.067C254.187 283.265 255.365 288.938 259.648 292.737C263.931 296.537 269.699 297.024 272.529 293.826Z" fill="white"/>
<path d="M288.005 317.344C291.59 315.569 292.301 309.687 289.593 304.207C286.884 298.727 281.782 295.725 278.197 297.501C274.612 299.277 273.902 305.159 276.61 310.638C279.318 316.118 284.42 319.12 288.005 317.344Z" fill="white"/>
<path d="M249.784 281.767C250.204 277.294 246.152 273.254 240.733 272.743C235.313 272.233 230.579 275.445 230.159 279.917C229.738 284.39 233.79 288.43 239.21 288.941C244.629 289.451 249.363 286.239 249.784 281.767Z" fill="white"/>
<path d="M288.374 248.42C288.872 242.126 282.45 236.481 274.028 235.812C265.607 235.143 258.375 239.703 257.876 245.998C257.377 252.292 263.8 257.937 272.222 258.606C280.643 259.275 287.875 254.715 288.374 248.42Z" fill="white"/>
<path d="M281.009 226.107C281.304 222.943 278.436 220.088 274.602 219.729C270.769 219.371 267.422 221.645 267.127 224.809C266.831 227.973 269.7 230.829 273.533 231.187C277.367 231.545 280.714 229.271 281.009 226.107Z" fill="white"/>
<path d="M296.481 237.068C298.483 234.804 297.648 230.793 294.617 228.107C291.587 225.421 287.508 225.079 285.507 227.342C283.506 229.606 284.34 233.618 287.371 236.303C290.401 238.989 294.48 239.331 296.481 237.068Z" fill="white"/>
<path d="M259.767 234.765C263.035 232.484 264.263 228.593 262.509 226.074C260.755 223.555 256.684 223.363 253.415 225.644C250.147 227.926 248.919 231.817 250.673 234.335C252.427 236.854 256.498 237.046 259.767 234.765Z" fill="white"/>
<path d="M315.917 289.626C320.001 288.048 321.086 280.997 318.341 273.876C315.595 266.756 310.059 262.263 305.976 263.841C301.892 265.419 300.807 272.471 303.552 279.591C306.298 286.711 311.834 291.204 315.917 289.626Z" fill="white"/>
<path d="M325.945 274.457C328.015 273.714 328.742 270.453 327.569 267.173C326.395 263.894 323.765 261.837 321.694 262.58C319.623 263.322 318.896 266.583 320.07 269.863C321.244 273.143 323.874 275.199 325.945 274.457Z" fill="white"/>
<path d="M327.246 291.201C329.387 291.104 330.993 288.131 330.832 284.56C330.672 280.989 328.805 278.172 326.664 278.269C324.522 278.365 322.917 281.339 323.077 284.91C323.238 288.481 325.104 291.298 327.246 291.201Z" fill="white"/>
<path d="M309.468 252.773C308.191 254.794 309.139 258.16 311.584 260.291C314.029 262.422 317.046 262.511 318.323 260.489C319.599 258.468 318.652 255.102 316.207 252.971C313.762 250.84 310.744 250.751 309.468 252.773Z" fill="white"/>
<path d="M336.011 239.033C339.514 236.006 338.535 229.121 333.824 223.655C329.113 218.189 322.453 216.212 318.95 219.239C315.446 222.265 316.425 229.15 321.137 234.616C325.848 240.082 332.507 242.059 336.011 239.033Z" fill="white"/>
<path d="M340.251 220.303C342.077 218.87 341.908 215.602 339.874 213.002C337.839 210.403 334.709 209.457 332.882 210.889C331.056 212.322 331.225 215.591 333.26 218.191C335.295 220.79 338.425 221.736 340.251 220.303Z" fill="white"/>
<path d="M346.896 235.104C348.976 234.408 349.765 231.157 348.658 227.843C347.551 224.529 344.967 222.407 342.887 223.104C340.807 223.8 340.019 227.051 341.126 230.365C342.233 233.679 344.816 235.801 346.896 235.104Z" fill="white"/>
<path d="M328.611 211.506C329.592 209.23 328.087 206.391 325.249 205.165C322.411 203.939 319.315 204.791 318.334 207.068C317.353 209.344 318.859 212.183 321.697 213.409C324.535 214.634 327.631 213.782 328.611 211.506Z" fill="white"/>
<path d="M364.766 263.405C368.744 262.846 371.262 257.363 370.392 251.158C369.521 244.953 365.591 240.376 361.614 240.935C357.637 241.495 355.118 246.978 355.989 253.183C356.859 259.388 360.789 263.965 364.766 263.405Z" fill="white"/>
<path d="M376.643 251.703C378.648 251.517 380.06 249.053 379.796 246.199C379.532 243.345 377.692 241.182 375.687 241.368C373.682 241.554 372.271 244.018 372.535 246.872C372.799 249.726 374.638 251.889 376.643 251.703Z" fill="white"/>
<path d="M379.23 261.159C379.978 258.221 379.09 255.457 377.245 254.987C375.401 254.516 373.3 256.516 372.551 259.455C371.803 262.393 372.692 265.157 374.536 265.627C376.38 266.098 378.482 264.097 379.23 261.159Z" fill="white"/>
<path d="M372.329 239.807C374.113 238.607 374.348 235.828 372.853 233.598C371.357 231.368 368.699 230.533 366.914 231.732C365.13 232.931 364.895 235.711 366.391 237.941C367.886 240.171 370.544 241.006 372.329 239.807Z" fill="white"/>
<path d="M250.517 103.824C250.488 104.577 250.283 105.329 249.882 106.016L242.751 118.394L232.788 135.668C232.474 135.668 232.168 135.668 231.854 135.661C228.489 135.603 225.139 135.325 221.884 134.887C217.84 134.331 213.957 133.498 210.417 132.431H210.41L199.25 125.979L194.053 122.976L191.71 121.624C189.433 120.309 188.652 117.393 189.966 115.114L208.884 82.3192C210.191 80.0322 213.103 79.2502 215.388 80.5728L221.278 83.978L244.481 97.3866L248.145 99.5057C248.495 99.7104 248.816 99.9514 249.094 100.222C249.59 100.711 249.977 101.303 250.218 101.946C250.437 102.545 250.546 103.181 250.517 103.824Z" fill="#F2BF8D"/>
<path d="M365.043 119.191L363.422 121.997L361.744 124.905L358.189 131.065L354.905 136.765C354.24 136.86 353.576 136.94 352.905 137.013C352.751 137.028 352.598 137.05 352.445 137.064C347.701 137.576 342.92 137.788 338.278 137.649C338.227 137.649 338.168 137.649 338.117 137.641C336.139 137.597 334.183 137.473 332.278 137.276C331.928 137.254 331.585 137.218 331.234 137.174C331.227 137.174 331.22 137.174 331.213 137.166C330.855 137.137 330.497 137.086 330.147 137.042C329.585 136.976 329.016 136.91 328.454 136.837C326.3 136.589 324.162 136.319 322.031 136.048C322.023 136.041 322.009 136.041 322.001 136.041C321.702 136.004 321.396 135.968 321.097 135.924H321.089C320.783 135.888 320.469 135.851 320.162 135.815H320.155C318.746 135.639 317.33 135.456 315.929 135.281C315.863 135.274 315.783 135.267 315.717 135.252C315.236 135.194 314.754 135.135 314.272 135.069H314.243C313.455 134.967 312.666 134.865 311.878 134.77C310.645 134.609 309.426 134.455 308.207 134.309H308.199C307.426 134.214 306.652 134.119 305.886 134.032C305.681 133.834 305.506 133.622 305.353 133.396C304.499 132.198 304.251 130.641 304.71 129.216C304.813 128.895 304.951 128.581 305.119 128.281L308.331 122.713L310.477 119.008V119.001L312.44 115.589L314.885 111.351L316.126 109.195L316.849 107.938V107.931L317.578 106.674V106.667L323.169 96.9777L324.031 95.4871C324.075 95.4067 324.126 95.3336 324.177 95.2606C325.542 93.1561 328.344 92.4694 330.534 93.7407L336.811 97.3723H336.818L353.62 107.083L354.16 107.398L363.298 112.681C363.692 112.907 364.043 113.178 364.342 113.499C364.532 113.689 364.699 113.901 364.845 114.128C365.846 115.588 365.984 117.554 365.043 119.191Z" fill="#B34642"/>
<path d="M304.119 133.82C301.645 133.527 299.185 133.25 296.748 133.001C294.164 132.731 291.595 132.49 289.055 132.292C287.96 132.197 286.872 132.117 285.785 132.044C283.588 131.891 281.413 131.766 279.26 131.686C278.486 131.65 277.72 131.628 276.953 131.606C275.37 131.562 273.793 131.547 272.231 131.547C272.231 131.562 272.224 131.569 272.224 131.584C272.216 131.576 272.209 131.562 272.195 131.555C270.326 129.479 268.531 127.156 266.881 124.62C266.005 123.29 265.21 121.946 264.48 120.594C260.597 113.411 258.699 106.17 258.896 100.287C258.969 98.2048 259.298 96.305 259.903 94.6317H259.911C260.743 92.2861 262.115 90.4009 264.02 89.1587L271.735 84.1241L274.472 88.3257C276.618 88.9762 278.851 90.043 281.092 91.4823H281.099C283.844 93.2286 286.603 95.5377 289.216 98.3143C291.362 100.594 293.42 103.196 295.288 106.067C301.295 115.282 303.989 125.066 303.12 132.285L304.119 133.82Z" fill="#D9AB7E"/>
<path d="M310.192 130.371C309.922 131.255 309.579 132.081 309.163 132.841C308.878 133.367 308.557 133.857 308.206 134.309H308.199C307.425 134.214 306.652 134.119 305.885 134.032C305.294 133.959 304.71 133.886 304.119 133.82C301.645 133.527 299.185 133.25 296.747 133.001C294.163 132.731 291.594 132.49 289.054 132.292C287.959 132.197 286.872 132.117 285.785 132.044C281.799 128.917 277.916 124.678 274.595 119.578C270.019 112.556 267.355 105.198 266.742 98.8918C266.545 96.9042 266.552 95.0263 266.757 93.2945C267.26 89.2246 268.902 85.9728 271.734 84.1241C277.668 80.244 287.12 83.6344 295.455 91.7674C297.835 94.091 300.127 96.8092 302.221 99.8491C302.484 100.236 302.747 100.631 303.002 101.025C303.579 101.91 304.126 102.801 304.645 103.7C305.353 104.927 306.002 106.162 306.593 107.39C308.513 111.365 309.812 115.318 310.476 119.001V119.008C311.25 123.298 311.17 127.214 310.192 130.371Z" fill="#F2BF8D"/>
<path d="M396.376 121.558C395.61 122.216 394.778 122.852 393.887 123.473C391.639 125.058 389.027 126.556 386.114 127.959H386.107C384.049 128.953 381.837 129.881 379.509 130.751C379.509 130.751 379.509 130.751 379.501 130.751C378.107 131.277 376.669 131.773 375.202 132.248C374.969 132.322 374.735 132.402 374.494 132.468C372.195 132.3 369.918 132.168 367.67 132.081C367.144 131.547 366.626 130.992 366.108 130.422C364.59 128.734 363.123 126.892 361.743 124.905C361.415 124.43 361.087 123.94 360.765 123.451C360.101 122.442 359.488 121.427 358.911 120.411C358.722 120.082 358.539 119.754 358.364 119.425C356.101 115.238 354.51 111.029 353.62 107.083C353.05 104.577 352.758 102.18 352.758 99.9657C352.758 99.6808 352.766 99.3957 352.773 99.1182C352.948 94.1275 354.634 90.1231 357.904 87.9969L365.619 82.9551L368.356 87.1568C369.881 87.617 371.443 88.2894 373.027 89.1515C376.406 90.9929 379.859 93.7111 383.1 97.1454C383.581 97.657 384.056 98.1831 384.523 98.7238C385.844 100.244 387.129 101.895 388.34 103.649C388.618 104.058 388.895 104.474 389.172 104.898C392.807 110.474 395.23 116.261 396.376 121.558Z" fill="#ADA765"/>
<path d="M402.471 110.956C402.449 111.38 402.413 111.818 402.362 112.271C402.077 114.836 400.632 117.357 398.296 119.783C397.705 120.382 397.07 120.981 396.377 121.558C395.61 122.216 394.778 122.852 393.888 123.473C391.64 125.058 389.027 126.556 386.114 127.959H386.107C384.049 128.953 381.837 129.881 379.509 130.751C379.509 130.751 379.509 130.751 379.502 130.751C379.487 130.736 379.465 130.721 379.451 130.699C379.137 130.458 378.816 130.195 378.502 129.925L378.473 129.896C377.597 129.165 376.735 128.376 375.882 127.528C373.247 124.941 370.736 121.88 368.481 118.416C368.094 117.824 367.722 117.225 367.371 116.626C364.05 111.116 361.904 105.475 360.999 100.36C360.832 99.4613 360.707 98.5844 360.627 97.7224C359.963 91.0657 361.583 85.5924 365.62 82.9546C367.678 81.6101 370.167 81.1352 372.882 81.4495C380.21 82.2531 389.231 88.6908 396.1 98.6868C396.37 99.0667 396.632 99.4613 396.888 99.8634C397.048 100.112 397.209 100.353 397.347 100.601C397.355 100.601 397.355 100.609 397.355 100.609C397.669 101.084 397.961 101.559 398.238 102.041C398.34 102.202 398.435 102.362 398.53 102.531C400.15 105.344 401.471 108.179 402.471 110.956Z" fill="#C7C073"/>
<path d="M272.231 131.547C272.231 131.562 272.223 131.569 272.223 131.584C272.216 131.576 272.209 131.562 272.194 131.555C266.486 131.569 260.939 131.927 255.582 132.738C255.129 132.804 254.677 132.863 254.232 132.943C252.984 133.148 251.757 133.374 250.531 133.644C250.086 133.725 249.648 133.82 249.203 133.922C249.05 133.959 248.889 133.995 248.728 134.032C245.524 134.777 242.152 135.259 238.707 135.5C238.532 135.515 238.364 135.522 238.189 135.53C238.357 132 240.554 128.727 244.043 127.338C244.714 127.075 245.393 126.9 246.079 126.798L242.751 118.395L237.123 104.197L235.065 99.0235L234.24 96.9409C233.678 97.3356 233.058 97.6789 232.393 97.9419C227.605 99.8417 222.19 97.5036 220.292 92.7099C219.102 89.7068 219.577 86.455 221.277 83.978C222.285 82.502 223.737 81.3037 225.511 80.6022C228.949 79.2357 232.7 80.0615 235.255 82.407C235.503 78.9582 237.671 75.7723 241.101 74.4058C245.882 72.506 251.298 74.8515 253.195 79.6304C255.1 84.4238 252.758 89.8457 247.977 91.7455C247.305 92.0158 246.626 92.1912 245.948 92.2935L247.75 96.8386L249.093 100.222L249.801 102.019L250.517 103.824L257.779 122.143C258.349 121.748 258.962 121.412 259.633 121.142C261.224 120.506 262.896 120.346 264.479 120.594C267.64 121.076 270.464 123.188 271.734 126.374C272.406 128.076 272.544 129.867 272.231 131.547Z" fill="#DA5450"/>
<path d="M404.559 97.233C403.391 99.469 401.442 101.04 399.216 101.771C398.895 101.88 398.566 101.968 398.238 102.041C396.187 102.472 393.983 102.224 391.983 101.179C391.348 100.85 390.771 100.448 390.245 99.9951L388.34 103.649L384.027 111.92L383.873 112.205L375.881 127.528L375.392 128.464C376.013 128.624 376.626 128.844 377.217 129.143C377.268 129.172 377.312 129.194 377.363 129.216C377.757 129.421 378.122 129.647 378.472 129.896L378.501 129.925C378.837 130.166 379.158 130.422 379.45 130.7C379.465 130.721 379.487 130.736 379.501 130.751C378.107 131.277 376.669 131.773 375.202 132.249C374.969 132.322 374.735 132.402 374.494 132.468C368.385 134.404 361.7 135.888 354.904 136.764C354.24 136.859 353.576 136.94 352.904 137.013C352.751 137.027 352.598 137.049 352.445 137.064C348.963 134.346 347.81 129.45 349.927 125.395C351.707 121.982 355.306 120.126 358.911 120.411C360.123 120.506 361.342 120.842 362.495 121.441C362.816 121.609 363.13 121.799 363.422 121.997C363.707 122.194 363.984 122.406 364.24 122.625L367.371 116.626L370.845 109.962L373.188 105.475L376.45 99.2132L379.085 94.1566C378.421 93.9812 377.764 93.74 377.122 93.4112C375.261 92.4393 373.859 90.9194 373.027 89.1511C371.903 86.791 371.779 83.9924 372.881 81.4495C372.969 81.2376 373.064 81.0258 373.173 80.821C375.56 76.2541 381.187 74.4857 385.749 76.8752C389.019 78.585 390.851 81.9754 390.742 85.4391C393.515 83.3639 397.34 82.9327 400.61 84.6426C405.172 87.0325 406.945 92.6663 404.559 97.233Z" fill="#F2BF8D"/>
<path d="M329.556 132.11C329.308 133.915 328.921 135.486 328.454 136.838C326.301 136.589 324.162 136.319 322.031 136.049C322.023 136.041 322.009 136.041 322.002 136.041C321.702 136.005 321.396 135.968 321.097 135.924H321.089L316.849 107.938V107.931L315.936 101.895L314.747 94.0328L313.988 89.0346C314.323 89.1661 314.644 89.305 314.966 89.4513C317.681 90.7008 319.914 92.5713 321.746 94.9242H321.754C322.25 95.5744 322.732 96.254 323.17 96.9774C324.403 98.9577 325.418 101.194 326.25 103.627C326.79 105.205 327.257 106.864 327.658 108.589C328.826 113.601 329.454 119.162 329.782 124.861C329.95 127.623 329.84 130.027 329.556 132.11Z" fill="#C7C073"/>
<path d="M321.089 135.924C320.783 135.888 320.469 135.851 320.162 135.815H320.155C318.746 135.639 317.33 135.457 315.929 135.281C315.863 135.274 315.783 135.267 315.717 135.252C315.236 135.194 314.754 135.135 314.272 135.07H314.243C313.455 134.967 312.666 134.865 311.878 134.77C311.666 134.324 311.462 133.864 311.265 133.374C310.885 132.453 310.528 131.453 310.192 130.371C309.951 129.604 309.725 128.793 309.513 127.938C309.082 126.191 308.681 124.445 308.331 122.713C307.229 117.372 306.528 112.162 306.594 107.39C306.601 106.316 306.652 105.264 306.747 104.234C306.849 103.043 307.017 101.874 307.25 100.748C307.791 98.059 308.696 95.604 310.046 93.4484C310.9 92.0819 311.936 90.8325 313.17 89.729C313.433 89.488 313.703 89.2613 313.987 89.0349L314.746 94.033L315.936 101.895L316.849 107.931V107.938L321.089 135.924Z" fill="#ADA765"/>
<path d="M322.031 136.048C322.023 136.041 322.009 136.041 322.002 136.041C321.702 136.004 321.396 135.968 321.097 135.924H321.089C320.783 135.888 320.469 135.851 320.162 135.815H320.155L316.126 109.195L315.002 101.756L313.805 93.9159L313.17 89.7287L313.017 88.6693C312.944 88.1871 313.272 87.7414 313.754 87.6684L313.813 87.6538C314.294 87.5808 314.739 87.9168 314.812 88.3918L314.966 89.4512L315.681 94.1497L316.878 102.034L317.579 106.667V106.674L319.936 122.209L320.571 126.396L322.031 136.048Z" fill="#C7C073"/>
<path d="M134.997 268.996L115.392 282.329C114.029 283.256 112.173 282.901 111.247 281.536L97.9292 261.909C97.0033 260.544 97.3577 258.686 98.7207 257.759L118.326 244.426C119.689 243.499 121.545 243.854 122.471 245.219L135.789 264.847C136.715 266.211 136.36 268.069 134.997 268.996Z" fill="#ADA765"/>
<path d="M191.107 263.08L171.502 276.413C170.139 277.34 168.283 276.985 167.357 275.62L154.039 255.993C153.113 254.628 153.468 252.77 154.831 251.843L174.436 238.51C175.799 237.583 177.655 237.938 178.581 239.303L191.899 258.93C192.825 260.295 192.47 262.153 191.107 263.08Z" fill="#ADA765"/>
<path d="M243.048 268.552L223.443 281.885C222.08 282.812 220.224 282.457 219.298 281.092L205.98 261.465C205.054 260.1 205.409 258.242 206.772 257.315L226.377 243.983C227.74 243.056 229.596 243.41 230.522 244.775L243.84 264.403C244.766 265.767 244.411 267.625 243.048 268.552Z" fill="#ADA765"/>
<path d="M290.44 263.08L270.835 276.413C269.472 277.34 267.616 276.985 266.69 275.62L253.372 255.993C252.446 254.628 252.801 252.77 254.164 251.843L273.769 238.51C275.132 237.583 276.988 237.938 277.914 239.303L291.232 258.93C292.158 260.295 291.803 262.153 290.44 263.08Z" fill="#ADA765"/>
<path d="M319.916 265.251L300.31 278.583C298.947 279.51 297.092 279.155 296.166 277.791L282.848 258.163C281.922 256.799 282.276 254.941 283.639 254.014L303.245 240.681C304.608 239.754 306.464 240.109 307.39 241.473L320.707 261.101C321.633 262.466 321.279 264.324 319.916 265.251Z" fill="#ADA765"/>
<path d="M267.375 278.228H243.674C242.026 278.228 240.69 276.891 240.69 275.241V251.513C240.69 249.864 242.026 248.526 243.674 248.526H267.375C269.023 248.526 270.359 249.864 270.359 251.513V275.241C270.359 276.891 269.023 278.228 267.375 278.228Z" fill="#C7C073"/>
<path d="M214.25 273.063H190.548C188.901 273.063 187.565 271.725 187.565 270.076V246.348C187.565 244.698 188.901 243.361 190.548 243.361H214.25C215.897 243.361 217.233 244.698 217.233 246.348V270.076C217.233 271.725 215.897 273.063 214.25 273.063Z" fill="#C7C073"/>
<path d="M161.03 278.1L138.646 270.3C137.09 269.758 136.267 268.055 136.809 266.497L144.6 244.088C145.141 242.53 146.842 241.706 148.398 242.249L170.782 250.048C172.339 250.591 173.161 252.293 172.62 253.851L164.829 276.261C164.287 277.819 162.586 278.642 161.03 278.1Z" fill="#C7C073"/>
<path d="M132.397 283.095L110.013 275.296C108.457 274.753 107.634 273.051 108.176 271.493L115.967 249.083C116.508 247.525 118.209 246.702 119.766 247.244L142.15 255.044C143.706 255.586 144.529 257.289 143.987 258.847L136.196 281.256C135.654 282.814 133.953 283.637 132.397 283.095Z" fill="#C7C073"/>
<path d="M300.056 266.52L277.672 258.721C276.115 258.178 275.293 256.475 275.835 254.917L283.625 232.508C284.167 230.95 285.868 230.126 287.424 230.669L309.808 238.468C311.365 239.011 312.187 240.713 311.646 242.272L303.855 264.681C303.313 266.239 301.612 267.062 300.056 266.52Z" fill="#C7C073"/>
<path d="M353.467 344.22H70.98L91.1539 270.338C92.1611 266.659 96.1609 264.041 100.774 264.041H323.673C328.286 264.041 332.278 266.659 333.286 270.338L353.467 344.22Z" fill="#F17F7E"/>
<path d="M333.818 344.22H70.98L91.1539 270.338C92.1611 266.659 96.1609 264.041 100.774 264.041H304.024C308.645 264.041 312.637 266.659 313.644 270.338L333.818 344.22Z" fill="#DA5450"/>
<path d="M367.224 344.219H57.219L61.1876 338.539C63.0399 335.888 66.3795 334.265 69.9839 334.265H354.459C358.063 334.265 361.403 335.888 363.255 338.539L367.224 344.219Z" fill="#993C39"/>
<path d="M56.0548 346.139L58.7573 346.139L42.5269 96.8059H94.464L110.695 346.139L113.377 345.808L96.9266 93.1015H39.582L56.0548 346.139Z" fill="#736C6C"/>
<path d="M26.2523 346.139L42.4832 96.8059H94.4201L78.1887 346.139L80.8924 346.139L97.3652 93.1015H40.0207L23.5698 346.139L26.2523 346.139Z" fill="#736C6C"/>
<path d="M37.4475 154.853H92.1553V152.54H37.4475V154.853Z" fill="#736C6C"/>
<path d="M39.5007 130.953H94.2085V128.64H39.5007V130.953Z" fill="#736C6C"/>
<path d="M36.6883 178.75H90.7461V176.438H36.6883V178.75Z" fill="#736C6C"/>
<path d="M34.8795 202.622H89.3904V200.309H34.8795V202.622Z" fill="#736C6C"/>
<path d="M33.3051 226.395H88.5322V224.082H33.3051V226.395Z" fill="#736C6C"/>
<path d="M31.5006 250.282H85.8918V247.969H31.5006V250.282Z" fill="#736C6C"/>
<path d="M29.1139 274.18H84.5984V271.867H29.1139V274.18Z" fill="#736C6C"/>
<path d="M27.8775 298.072H83.3621V295.759H27.8775V298.072Z" fill="#736C6C"/>
<path d="M25.7616 321.964H81.2461V319.651H25.7616V321.964Z" fill="#736C6C"/>
<path d="M146.06 141.667L126.455 155C125.092 155.927 123.236 155.572 122.31 154.207L108.992 134.58C108.066 133.215 108.421 131.357 109.784 130.43L129.389 117.098C130.753 116.171 132.608 116.525 133.534 117.89L146.852 137.518C147.778 138.882 147.423 140.74 146.06 141.667Z" fill="#F2BF8D"/>
<path d="M166.33 157.936C166.018 157.467 165.657 157.052 165.265 156.681L186.132 142.754C186.323 143.259 186.568 143.752 186.88 144.22C189.111 147.571 193.634 148.477 196.981 146.243C200.328 144.009 201.233 139.481 199.002 136.13C197.399 133.724 194.617 132.588 191.936 132.96C193.31 130.625 193.332 127.617 191.73 125.211C189.498 121.86 184.976 120.954 181.629 123.188C178.281 125.422 177.377 129.95 179.608 133.301C179.92 133.769 180.281 134.185 180.673 134.556L159.806 148.483C159.615 147.978 159.37 147.485 159.058 147.016C156.827 143.665 152.304 142.759 148.957 144.993C145.61 147.227 144.705 151.755 146.936 155.106C148.539 157.512 151.321 158.649 154.002 158.277C152.628 160.611 152.606 163.62 154.208 166.026C156.439 169.377 160.962 170.282 164.309 168.048C167.657 165.815 168.561 161.287 166.33 157.936Z" fill="#DA5450"/>
<path d="M431.704 81.0804C431.203 80.8237 430.686 80.6368 430.163 80.5044L441.598 58.1592C442.011 58.5068 442.465 58.818 442.966 59.0747C446.546 60.9113 450.935 59.4942 452.77 55.9098C454.604 52.3255 453.189 47.9308 449.609 46.0944C447.038 44.7759 444.055 45.1417 441.896 46.7752C441.958 44.0663 440.512 41.4289 437.942 40.1104C434.362 38.2738 429.972 39.6909 428.138 43.2753C426.303 46.8597 427.719 51.2543 431.299 53.0907C431.8 53.3474 432.317 53.534 432.84 53.6667L421.405 76.0119C420.991 75.6642 420.538 75.3531 420.037 75.0963C416.457 73.2598 412.067 74.6769 410.233 78.2612C408.399 81.8456 409.814 86.2403 413.394 88.0766C415.965 89.3952 418.948 89.0294 421.107 87.3959C421.045 90.1048 422.491 92.7421 425.061 94.0607C428.641 95.8973 433.031 94.4802 434.865 90.8958C436.7 87.3112 435.284 82.9167 431.704 81.0804Z" fill="#CEE5EA"/>
<path d="M159.465 203.702L196.015 174.11C196.015 174.11 189.824 169.718 178.558 177.242C167.292 184.766 157.826 193.495 159.465 203.702Z" fill="#F2BF8D"/>
<path d="M159.465 203.702L196.015 174.11C196.015 174.11 199.01 181.09 189.304 190.545C179.599 200 169.092 207.442 159.465 203.702Z" fill="#BF966F"/>
<path d="M196.822 174.433L159.611 204.559C159.298 204.813 158.835 204.764 158.582 204.45L158.549 204.41C158.296 204.096 158.345 203.633 158.658 203.379L195.868 173.253C196.181 173 196.645 173.049 196.898 173.362L196.93 173.403C197.183 173.716 197.135 174.18 196.822 174.433Z" fill="#D9AB7E"/>
<path d="M139.944 211.751L178.355 238.879C178.355 238.879 180.886 231.718 170.582 222.92C160.278 214.123 149.306 207.387 139.944 211.751Z" fill="#F2BF8D"/>
<path d="M139.944 211.751L178.355 238.879C178.355 238.879 172.465 243.668 160.731 236.9C148.996 230.132 138.978 222.044 139.944 211.751Z" fill="#BF966F"/>
<path d="M178.264 239.744L139.161 212.126C138.832 211.894 138.753 211.434 138.985 211.105L139.015 211.062C139.247 210.733 139.706 210.654 140.035 210.886L179.138 238.504C179.467 238.736 179.547 239.195 179.315 239.525L179.284 239.568C179.052 239.897 178.593 239.976 178.264 239.744Z" fill="#D9AB7E"/>
<path d="M307.704 341.346C307.476 344.102 315.237 344.711 320.039 343.87C320.039 343.87 334.683 333.655 336.004 332.213C337.325 330.77 337.685 317.551 344.167 310.341C350.649 303.13 353.65 285.705 342.606 282.22C331.563 278.735 321.479 282.099 319.319 288.108C317.158 294.117 319.439 304.692 321.84 311.542C324.24 318.392 327.841 325.483 324.12 330.17C320.399 334.856 315.117 337.02 312.597 337.5C310.076 337.981 307.853 339.543 307.704 341.346Z" fill="#CCB7AB"/>
<path d="M226.294 256.661C225.33 259.058 231.301 262.157 235.202 261.401C239.103 260.645 241.604 257.246 245.727 258.714C249.849 260.182 256.56 267.525 261.895 268.119C267.231 268.712 268.571 271.889 273.27 270.754C277.969 269.618 290.976 265.333 294.774 259.663C298.572 253.993 301.05 241.723 294.37 241.881C287.691 242.04 284.814 243.955 276.261 247.366C267.709 250.777 261.199 253.946 257.018 253.012C252.837 252.079 245.904 249 243.94 248.53C241.976 248.059 227.139 254.556 226.294 256.661Z" fill="#CCB7AB"/>
<path d="M369.973 288.792C357.734 288.073 354.731 279.024 354.086 279.098C353.449 279.186 353.778 281.98 355.448 286.548C357.133 291.124 354.167 296.242 353.376 299.607C352.57 302.981 354.804 306.508 357.294 309.463C359.777 312.432 364.252 314.75 366.252 316.92C368.252 319.083 363.769 325.404 361.696 329.093C359.609 332.781 356.489 341.668 356.489 341.668C352.731 344 339.928 346.002 339.694 341.668C339.452 337.349 344.484 337.504 348.732 335.347C352.973 333.184 353.288 318.68 350.893 317.873C348.49 317.082 343.451 313.151 341.84 311.23C340.243 309.301 333.233 310.299 327.542 305.701C320.416 299.937 316.636 288.469 312.637 283.182C308.638 277.895 299.262 275.878 289.338 272.997C279.42 270.115 272.623 258.756 265.899 250.258C259.183 241.766 255.029 230.87 254.678 227.203C254.502 225.392 253.88 223.024 252.957 220.758C252.012 218.441 250.759 216.226 249.338 214.855C248.987 214.503 248.606 214.173 248.218 213.857C245.486 211.702 242.783 210.103 238.733 209.89C234.096 209.648 229.328 206.569 226.589 204.068C223.805 201.531 222.384 201.113 221.586 195.393C221.461 194.462 221.344 191.397 221.505 188.816C221.637 186.66 221.952 184.849 222.611 184.886C223.051 184.907 224.494 185.436 226.274 186.139C226.633 186.293 227.013 186.44 227.394 186.601C230.192 187.753 233.452 189.183 235.063 189.887C235.759 190.195 236.565 190.18 237.238 189.82C241.113 187.76 250.269 180.596 253.902 182.194C257.974 184.006 271.18 189.131 271.781 194.939C271.957 196.684 272.726 198.451 273.773 200.086C275.37 202.616 277.604 204.897 279.354 206.517C280.248 207.346 281.017 208.006 281.5 208.431C283.595 210.279 303.913 225.575 305.195 229.909C306.477 234.243 317.522 250.822 333.475 256.461C349.45 262.115 352.695 271.603 352.695 271.603C352.695 271.603 360.012 276.546 371.533 274.617C384.146 272.513 393.624 253.946 393.624 253.946C395.901 265.73 382.219 289.525 369.973 288.792Z" fill="#FFF1F0"/>
<path d="M226.768 232.793C225.036 234.709 229.569 239.683 233.49 240.324C237.412 240.965 240.933 238.642 244.294 241.446C247.655 244.25 251.416 253.464 256.218 255.867C261.019 258.271 261.18 261.716 265.981 262.276C270.783 262.837 284.467 263.318 289.989 259.312C295.511 255.306 302.073 244.651 295.751 242.488C289.429 240.324 286.068 241.126 276.865 241.366C267.662 241.606 260.459 242.327 256.858 240.004C253.257 237.68 247.815 232.393 246.134 231.271C244.454 230.15 228.289 231.111 226.768 232.793Z" fill="#FFF1F0"/>
<path d="M294.45 244.819C293.218 250.005 288.769 253.901 288.769 253.901V251.354C288.769 251.354 287.328 257.381 282.072 258.229L282.665 256.438C282.665 256.438 280.546 259.417 276.561 259.333C276.561 259.333 283.343 256.533 285.972 252.077L285.505 254.919C285.505 254.919 289.845 251.864 291.427 245.668C291.427 245.668 291.88 247.959 291.427 248.978C290.974 249.996 294.619 244.31 294.958 239.557C294.958 239.557 294.792 243.377 294.45 244.819Z" fill="#CCB7AB"/>
<path d="M320.894 256.696C315.927 254.775 312.67 249.838 312.67 249.838L315.191 250.181C315.191 250.181 309.42 247.939 309.288 242.611L310.981 243.441C310.981 243.441 308.318 240.937 308.938 236.996C308.938 236.996 310.795 244.101 314.852 247.308L312.102 246.463C312.102 246.463 314.542 251.179 320.461 253.583C320.461 253.583 318.132 253.724 317.185 253.137C316.238 252.55 321.375 256.932 326.034 257.909C326.034 257.909 322.275 257.23 320.894 256.696Z" fill="#CCB7AB"/>
<path d="M286.565 231.154C281.734 231.272 276.137 233.106 276.137 233.106L280.376 233.87C280.376 233.87 270.881 234.634 267.575 236.416H274.102C274.102 236.416 264.715 237.922 262.364 239.557C262.364 239.557 278.68 235.907 284.106 235.907L277.494 235.354C277.494 235.354 288.567 231.239 292.992 231.663C292.992 231.664 288.004 231.119 286.565 231.154Z" fill="#CCB7AB"/>
<path d="M226.273 186.14C225.402 189.044 222.999 189.102 221.505 188.816C221.637 186.66 221.952 184.849 222.611 184.886C223.051 184.908 224.493 185.436 226.273 186.14Z" fill="#332B27"/>
<path d="M245.658 191.682C245.021 192.56 244.223 193.066 243.875 192.814C243.528 192.561 243.763 191.644 244.4 190.766C245.038 189.888 245.836 189.382 246.183 189.635C246.531 189.888 246.296 190.804 245.658 191.682Z" fill="#332B27"/>
<path d="M257.905 188.423C257.108 188.143 256.309 188.836 256.48 189.665C257.628 195.235 261.178 211.484 264.114 214.423C266.974 217.286 278.461 214.519 282.845 213.327C283.632 213.113 283.907 212.138 283.353 211.539L264.1 190.731C263.98 190.601 263.829 190.503 263.662 190.444L257.905 188.423Z" fill="#CCB7AB"/>
<path d="M256.806 191.224C256.806 191.224 260.954 206.217 263.399 210.258C265.843 214.3 269.768 213.706 268.583 210.481C267.398 207.255 265.324 213.595 270.657 213.929C275.991 214.263 275.583 208.849 273.731 208.886C271.88 208.923 274.768 214.67 279.583 213.113C284.397 211.556 278.768 206.143 278.213 208.59C277.657 211.037 279.995 212.705 282.768 212.186" stroke="#FFF1F0" stroke-width="0.7683" stroke-miterlimit="10"/>
<path d="M442.393 357H5.77685C2.58645 357 0 354.411 0 351.217V349.989C0 346.794 2.58645 344.205 5.77685 344.205H442.393C445.583 344.205 448.17 346.794 448.17 349.989V351.217C448.17 354.411 445.583 357 442.393 357Z" fill="#295A40"/>
<path d="M258.876 61.746L253.868 90.4365C253.613 91.1576 253.466 91.9302 253.466 92.7391C253.466 96.5463 256.549 99.6324 260.352 99.6324C264.155 99.6324 267.238 96.5461 267.238 92.7391L275.298 61.7462L258.876 61.746Z" fill="#332B27"/>
<path d="M253.542 93.7092C253.497 93.3914 253.466 93.0693 253.466 92.7388C253.466 88.9316 256.549 85.8454 260.352 85.8454C264.154 85.8454 267.237 88.9316 267.237 92.7388L266.83 123.52H255.372L253.542 93.7092Z" fill="#332B27"/>
<path d="M280.992 60.3508H264.891L268.054 77.9041L270.468 80.3157L274.21 93.7092L287.739 91.2299L280.992 60.3508Z" fill="#403630"/>
<path d="M266.158 29.2759L258.876 32.5584V62.1561H281.374L283.468 32.8319L273.607 28.7345L266.158 29.2759Z" fill="#CEE5EA"/>
<path d="M266.16 24.6512V29.2759C266.16 29.2759 266.436 30.2745 268.785 30.2842C271.128 30.289 273.607 28.7331 273.607 28.7331L272.881 18.6211L266.16 24.6512Z" fill="#FDAE97"/>
<path d="M266.158 28.6414L270.955 23.6552L266.158 23.5923V28.6414Z" fill="#E89780"/>
<path d="M264.194 15.3485C264.194 15.3485 264.194 18.1844 264.194 20.1961V21.8587C264.194 23.1725 264.562 25.1212 266.039 25.572C267.511 26.0227 269.54 25.4071 270.954 23.8704C272.367 22.329 275.505 15.3872 271.143 12.8229C266.775 10.2585 264.296 14.6699 264.194 15.3485Z" fill="#FDAE97"/>
<path d="M232.545 44.9438L231.946 49.6716L231.771 49.6058C231.085 49.5912 230.224 49.7666 229.822 50.0735C229.18 50.5631 228.26 51.2863 227.326 52.0682C225.625 53.4858 220.815 51.6664 220.815 51.6664C220.815 51.6664 220.012 51.7759 219.815 51.3815C219.618 50.9943 220.421 50.4901 220.421 50.4901C220.115 50.1467 220.523 49.6571 221.903 49.3867C223.034 49.1675 225.093 47.8668 225.764 47.2311C225.917 47.0923 225.99 46.9899 225.99 46.9315C225.976 46.8 226.435 46.1934 225.851 46.1789C225.851 46.1789 225.144 46.0913 225.136 46.0913C224.246 46.0768 223.202 45.8649 223.151 45.6676C223.078 45.4118 223.268 45.1927 223.881 44.988C224.034 44.9295 224.224 44.8785 224.443 44.842C225.464 44.652 228.406 44.4402 229.347 44.3962C230.077 44.3671 231.311 44.6227 232.479 44.9295L232.545 44.9438Z" fill="#FDAE97"/>
<path d="M255.163 53.6247C254.667 55.5538 252.842 56.818 250.915 56.6863L231.617 52.2362L231.946 49.6714L232.544 44.9436L232.61 44.3955L252.237 48.6409C254.412 49.2037 255.725 51.4471 255.163 53.6247Z" fill="#CEE5EA"/>
<path d="M274.134 92.7388C274.134 88.9316 277.217 85.8454 281.019 85.8454C284.822 85.8454 286.909 87.4329 287.739 91.2299C289.665 100.045 293.704 123.52 293.704 123.52H281.773L274.21 93.7092C274.165 93.3912 274.134 93.069 274.134 92.7388Z" fill="#403630"/>
<path d="M249.529 56.4135C251.806 57.707 254.727 56.8996 256.019 54.6197L264.608 39.4616C265.9 37.1815 265.093 34.2576 262.816 32.9643C260.538 31.6708 257.618 32.4783 256.326 34.7582L247.737 49.9165C246.445 52.1964 247.251 55.12 249.529 56.4135Z" fill="#CEE5EA"/>
<path d="M270.69 12.5824C270.69 12.5824 265.41 10.1443 264.193 11.7456C262.975 13.3469 265.004 13.9059 265.004 13.9059C265.004 13.9059 262.486 13.6084 262.584 15.3078C262.682 17.0071 268.982 14.6869 268.982 14.6869C268.982 14.6869 266.893 15.6347 268.101 16.3863C269.309 17.1379 270.69 16.1574 270.69 16.1574C270.69 16.1574 271.887 16.8432 271.691 19.9926C271.495 23.142 273.373 23.8375 273.373 23.8375C273.373 23.8375 273.148 19.0663 274.068 17.7917C274.988 16.517 273.638 11.7852 270.69 12.5824Z" fill="#332B27"/>
<path d="M265.455 128.136L265.256 132.075H252.551L252.547 131.979C252.465 129.881 254.142 128.136 256.239 128.136H265.455Z" fill="#403630"/>
<path d="M294.521 132.075H281.386C281.217 129.952 282.892 128.136 285.019 128.136H285.075H293.762L294.521 132.075Z" fill="#403630"/>
<path d="M267.894 32.0049L265.385 46.7218L267.341 49.2465L269.884 46.9565L268.557 32.0049H267.894Z" fill="#DA5450"/>
<path d="M271.395 20.7227C270.883 21.5259 270.746 22.0912 271.376 22.4939C272.006 22.8967 273.053 22.7693 273.566 21.9664C274.078 21.1632 273.983 20.1856 273.353 19.7831C272.723 19.3801 271.908 19.9196 271.395 20.7227Z" fill="#FDAE97"/>
<path d="M273.04 20.6612C273.04 20.6612 272.393 20.5645 271.95 21.3947C271.95 21.3947 272.358 21.3006 272.856 21.3947" stroke="#E89780" stroke-width="0.4868" stroke-miterlimit="10"/>
<path d="M268.117 19.0377C268.117 19.3424 267.957 19.5894 267.76 19.5894C267.563 19.5894 267.404 19.3424 267.404 19.0377C267.404 18.733 267.563 18.486 267.76 18.486C267.957 18.486 268.117 18.733 268.117 19.0377Z" fill="#332B27"/>
<path d="M267.888 22.4984C267.888 22.4984 267.358 23.5309 266.019 23.2887" stroke="#332B27" stroke-width="0.6095" stroke-miterlimit="10"/>
<path d="M266.603 19.2486L265.931 21.1945C265.863 21.3915 265.937 21.6099 266.112 21.7234L266.66 22.0802" stroke="#332B27" stroke-width="0.6095" stroke-miterlimit="10"/>
<path d="M268.678 18.1219C268.678 18.1219 267.927 17.596 267.212 17.9296" stroke="#332B27" stroke-width="0.6095" stroke-miterlimit="10"/>
<path d="M172.969 54.0964V52.8556C172.969 47.8026 177.099 43.6683 182.146 43.6683H260.706C265.754 43.6683 269.883 47.8026 269.883 52.8556V54.0964C269.883 59.1494 265.754 63.2838 260.706 63.2838H182.146C177.099 63.2838 172.969 59.1494 172.969 54.0964Z" fill="#A8806A"/>
<path d="M115.415 89.1334V17.8186H187.596C196.286 17.8186 203.331 24.8714 203.331 33.5718V73.3803C203.331 82.0804 196.286 89.1334 187.596 89.1334H115.415Z" fill="#CF9D82"/>
<path d="M115.415 23.541H187.747C193.367 23.541 197.923 28.102 197.923 33.7279V73.224C197.923 78.8501 193.367 83.4109 187.747 83.4109H115.415V23.541Z" fill="#A8806A"/>
<path d="M264.792 19.5894C264.989 19.5894 265.148 19.3424 265.148 19.0377C265.148 18.733 264.989 18.486 264.792 18.486C264.595 18.486 264.435 18.733 264.435 19.0377C264.435 19.3424 264.595 19.5894 264.792 19.5894Z" fill="#332B27"/>
<path d="M264.104 18.0916C264.104 18.0916 264.625 17.596 265.34 17.9293" stroke="#332B27" stroke-width="0.6095" stroke-miterlimit="10"/>
<path d="M287.214 58.7283C289.749 58.0702 291.285 55.4558 290.628 52.9182L286.258 36.0488C285.601 33.5112 282.99 31.9736 280.455 32.6314C277.92 33.2895 276.384 35.9039 277.041 38.4415L281.411 55.3109C282.068 57.8485 284.68 59.3864 287.214 58.7283Z" fill="#CEE5EA"/>
<path d="M265.367 50.753L265.17 57.3513H265.148C263.433 57.227 259.105 58.1403 257.528 58.4911C257.171 58.5641 256.813 58.4181 256.616 58.1112L254.725 55.2176C254.426 54.7645 254.339 54.2093 254.477 53.6905L255.068 51.44C255.134 51.2136 255.419 51.1403 255.579 51.3085L256.828 52.675C257.01 52.865 257.302 52.9089 257.521 52.7626L259.491 51.513L256.141 51.4326C255.952 51.4252 255.791 51.2792 255.776 51.0818L255.762 50.8041C255.747 50.6068 255.886 50.4314 256.083 50.4023L261.915 49.6717L265.177 50.7678C265.177 50.7678 265.243 50.7602 265.367 50.753Z" fill="#FDAE97"/>
<path d="M286.443 129.158H283.415" stroke="#F2BF8D" stroke-width="1.0158" stroke-miterlimit="10"/>
<path d="M285.497 130.105H282.468" stroke="#F2BF8D" stroke-width="1.0158" stroke-miterlimit="10"/>
<path d="M257.902 129.158H254.873" stroke="#F2BF8D" stroke-width="1.0158" stroke-miterlimit="10"/>
<path d="M256.955 130.105H253.926" stroke="#F2BF8D" stroke-width="1.0158" stroke-miterlimit="10"/>
<path d="M267.55 21.0499C267.644 21.3298 268.171 21.4056 268.727 21.2193C269.283 21.0329 269.657 20.6547 269.564 20.3749C269.47 20.095 268.943 20.0191 268.387 20.2054C267.831 20.3918 267.457 20.7697 267.55 21.0499Z" fill="#E89780"/>
<path d="M264.194 20.1961V21.2773C264.649 21.3305 265.022 21.2045 265.085 20.9671C265.153 20.6858 264.756 20.3417 264.194 20.1961Z" fill="#E89780"/>
<path d="M265.455 128.136L265.692 123.52H256.387L256.24 128.136H265.455Z" fill="#FDAE97"/>
<path d="M256.301 126.204L265.692 123.52H256.387L256.301 126.204Z" fill="#E89780"/>
<path d="M293.762 128.136L293.001 123.52H283.919L285.075 128.136H293.762Z" fill="#FDAE97"/>
<path d="M267.501 31.106H269.186L269.333 31.426L268.557 32.0048H267.894L267.341 31.3274L267.501 31.106Z" fill="#DA5450"/>
<path d="M284.474 125.738L293.001 123.52H283.919L284.474 125.738Z" fill="#E89780"/>
<path d="M290.483 54.158C290.556 56.6937 288.775 58.8273 286.534 58.8858L265.148 58.1038L265.17 57.3513L265.367 50.753L265.397 49.8761L286.286 49.6423C288.527 49.5839 290.417 51.6151 290.483 54.158Z" fill="#CEE5EA"/>
<path d="M273.579 28.3336L268.282 30.284L269.247 32.4976L273.812 28.8199L273.579 28.3336Z" fill="white"/>
<path d="M266.16 28.8707L265.906 29.3895L267.279 32.2881L268.282 30.284L266.16 28.8707Z" fill="white"/>
<path d="M265.367 58.1119L276.769 58.5288" stroke="#332B27" stroke-width="0.6095" stroke-miterlimit="10"/>
<path d="M265.396 49.8761H280.003L278.358 43.5256" stroke="#332B27" stroke-width="0.6095" stroke-miterlimit="10"/>
<path d="M74.9831 95.5422C72.9345 96.646 70.3562 95.8712 69.2536 93.8202L60.9659 78.4039C59.8633 76.3531 60.6375 73.7718 62.686 72.668C64.7345 71.5642 67.3129 72.3389 68.4154 74.39L76.7032 89.8063C77.8057 91.8571 77.0316 94.4381 74.9831 95.5422Z" fill="#C7C073"/>
<path d="M71.0515 96.1096C68.9461 95.0929 67.9567 92.7385 68.8533 90.8779L78.7156 75.873C78.9346 75.3003 79.1608 74.6351 79.2814 74.0617C79.5614 72.7281 80.7484 69.1958 81.2553 69.3707C81.7622 69.5456 81.4391 72.1309 81.712 72.0297C81.9849 71.9285 82.6643 70.0874 82.8917 69.2795C83.1191 68.4716 83.3281 66.661 83.7865 66.4871C84.245 66.3131 84.6659 66.9004 84.6659 66.9004C84.6659 66.9004 84.6612 66.1998 85.0985 66.2809C85.5359 66.3623 85.8078 67.4525 85.8078 67.4525C85.8078 67.4525 85.7654 67.0628 86.2256 67.2726C86.6856 67.4823 86.534 69.243 86.534 69.243C86.534 69.243 86.6892 68.9242 87.0167 69.1311C87.3441 69.3377 86.8896 71.6289 86.0545 73.1135C85.3092 74.4389 83.1885 77.3912 82.7416 78.01L76.5095 94.5751C75.6133 96.436 73.1573 97.1265 71.0515 96.1096Z" fill="#FDAE97"/>
<path d="M53.91 60.482C53.91 60.482 51.7116 62.0872 52.1888 65.4009C52.6662 68.7147 52.9333 70.5084 50.8407 70.6794C48.7481 70.8505 44.5564 69.6014 44.2171 72.4048C43.8777 75.2082 45.8525 77.0758 42.9048 77.5926C39.957 78.1092 39.554 81.9095 39.554 81.9095C39.554 81.9095 50.0814 88.5462 60.0895 82.4519C70.0978 76.3576 59.4319 72.1543 59.4319 72.1543L53.91 60.482Z" fill="#332B27"/>
<path d="M54.103 111.394C57.3647 114.588 64.6989 116.542 72.952 115.776C81.2052 115.009 86.5619 115.066 86.5619 115.066C90.3388 115.066 93.4005 112.001 93.4005 108.219C93.4005 104.438 90.3388 101.373 86.5619 101.373L55.4527 100.389L54.103 111.394Z" fill="#255073"/>
<path d="M55.5366 70.9114L48.134 74.2679C48.134 74.2679 49.78 93.3458 49.9502 95.4327C50.1204 97.5196 49.4821 100.671 49.4821 100.671H67.2221C67.2221 100.671 67.0095 90.4498 68.2005 87.5963C69.0075 85.6631 69.5619 84.4872 69.0938 82.2725C68.6259 80.0577 65.2017 76.1426 65.7549 72.3094L61.8931 71.0712L55.5366 70.9114Z" fill="#C7C073"/>
<path d="M46.1993 99.3599C43.912 98.934 42.3888 96.7119 42.8142 94.4222L46.0122 77.2102C46.4377 74.9202 48.6573 73.3953 50.9444 73.8212C53.2317 74.2471 54.755 76.469 54.3295 78.759L51.1315 95.971C50.7061 98.2609 48.4867 99.7859 46.1993 99.3599Z" fill="#C7C073"/>
<path d="M63.2118 60.677C63.2118 60.677 64.3513 58.2541 61.9744 57.3734L63.2118 60.677Z" fill="#332B27"/>
<path d="M55.5054 70.9102L55.5104 70.9152C55.59 71.0545 56.9328 73.3199 59.4739 73.1307C61.7217 72.9612 61.8909 71.0696 61.8909 71.0696V62.4515H56.4206L55.5054 70.9102Z" fill="#FDAE97"/>
<path d="M61.8907 70.0879L58.0742 65.933L61.8931 67.3692L61.8907 70.0879Z" fill="#E89780"/>
<path d="M58.1606 67.4117C59.8854 68.5596 61.9873 68.672 63.3013 67.8868C64.6162 67.1065 64.5133 65.1389 64.2025 63.8765C64.2015 63.8717 64.2015 63.8717 64.2003 63.8667C64.1353 63.6057 64.043 63.2384 63.9405 62.8225C63.5423 61.1919 62.954 58.7769 62.954 58.7769C62.7083 57.5044 59.2684 54.4853 55.6683 57.9848C52.0694 61.4894 56.4357 66.2638 58.1606 67.4117Z" fill="#FDAE97"/>
<path d="M62.8679 58.2632C62.8679 58.2632 62.7401 59.7653 60.5803 60.657C58.4207 61.5484 56.3393 62.9777 56.4711 65.2137C56.6029 67.4494 55.7744 68.662 55.7744 68.662C55.7744 68.662 55.6105 65.8758 54.342 63.4551C53.8498 62.5162 53.4795 60.5713 54.4674 58.9655C56.0266 56.4312 59.7947 54.6457 62.8679 58.2632Z" fill="#332B27"/>
<path d="M56.8572 64.7555C57.2738 65.4499 57.377 65.9335 56.8324 66.2609C56.2878 66.5883 55.4009 66.4558 54.9843 65.7615C54.5677 65.0671 54.6714 64.2387 55.216 63.9111C55.7603 63.5837 56.4405 64.0609 56.8572 64.7555Z" fill="#FDAE97"/>
<path d="M55.645 65.191C56.0976 64.9998 56.4711 65.2136 56.4711 65.2136C56.2077 64.4329 55.2744 64.6923 55.2744 64.6923" stroke="#E89780" stroke-width="0.4216" stroke-miterlimit="10" stroke-linecap="round" stroke-linejoin="round"/>
<path d="M60.0989 62.8791C60.1663 63.1847 60.3808 63.3971 60.5784 63.3534C60.776 63.3098 60.8813 63.0268 60.8141 62.7211C60.7467 62.4155 60.5322 62.2031 60.3346 62.2468C60.1372 62.2902 60.0317 62.5734 60.0989 62.8791Z" fill="#332B27"/>
<path d="M62.6548 62.0659C62.7222 62.3716 62.9367 62.5839 63.1343 62.5403C63.3319 62.4966 63.4372 62.2136 63.37 61.908C63.3026 61.6023 63.0881 61.3899 62.8905 61.4336C62.6931 61.4773 62.5876 61.7603 62.6548 62.0659Z" fill="#332B27"/>
<path d="M59.2683 62.4186C59.2683 62.4186 59.7133 61.5217 60.4884 61.6393" stroke="#332B27" stroke-width="0.626" stroke-miterlimit="10"/>
<path d="M67.9814 88.2587C67.9814 88.2587 69.2822 85.4085 69.2417 83.2656C69.2012 81.1226 67.7373 79.2543 67.7373 79.2543" stroke="white" stroke-width="0.8433" stroke-miterlimit="10"/>
<path d="M62.4878 61.0544C62.4878 61.0544 62.9147 60.8731 63.495 61.2511" stroke="#332B27" stroke-width="0.626" stroke-miterlimit="10"/>
<path d="M50.549 168.682H39.0825L42.7217 132.16L42.7322 132.033C42.9751 128.485 45.9328 125.682 49.5403 125.682C53.3116 125.682 56.3642 128.739 56.3642 132.514C56.3642 132.726 56.3537 132.932 56.3325 133.133L50.549 168.682Z" fill="#2D628C"/>
<path d="M61.7422 62.3134C61.7422 62.3134 62.1109 63.8199 63.0392 63.8092C63.0392 63.8092 62.8135 64.1289 62.4829 64.3129" stroke="#332B27" stroke-width="0.626" stroke-miterlimit="10"/>
<path d="M49.482 100.671C45.968 103.585 43.5691 109.801 43.468 118.099C43.367 126.396 42.7506 131.724 42.7506 131.724C42.356 135.484 45.0806 138.853 48.8369 139.248C52.5931 139.643 55.9582 136.915 56.3529 133.155L61.66 100.671H49.482Z" fill="#2D628C"/>
<path d="M113.955 70.84C112.467 72.8056 110.562 74.2743 108.459 75.2096C103.876 77.2702 98.3431 76.8245 94.0661 73.5656C93.6574 73.2588 93.2779 72.93 92.9202 72.5864C92.4969 72.1917 92.1101 71.7753 91.7523 71.3442L62.1921 110.328C63.1483 110.759 64.0753 111.292 64.9511 111.957C71.199 116.706 72.4178 125.621 67.6737 131.876C66.1774 133.849 64.2652 135.318 62.1557 136.253C57.5719 138.307 52.0542 137.854 47.7769 134.602C43.3393 131.233 41.4562 125.746 42.4341 120.616C42.4415 120.565 42.456 120.514 42.4634 120.463C42.2589 120.565 42.0473 120.667 41.8356 120.762C37.2447 122.823 31.7122 122.392 27.4278 119.133C21.18 114.383 19.9611 105.469 24.6981 99.2136C26.8367 96.4004 29.8145 94.6028 33.0188 93.916C36.9237 93.0685 41.1642 93.8795 44.5946 96.488C45.4705 97.153 46.2368 97.9056 46.9084 98.7094L48.5434 96.5465L76.4686 59.7258C76.2279 59.6163 75.9943 59.5066 75.7608 59.3825C75.7314 59.3679 75.695 59.346 75.6659 59.3314C74.9945 58.9807 74.3374 58.5714 73.7099 58.0966C67.462 53.3469 66.2432 44.4322 70.9873 38.1776C73.1259 35.3644 76.1037 33.5667 79.3008 32.88C83.2129 32.0325 87.4463 32.8435 90.8841 35.4522C95.3655 38.8574 97.2413 44.4182 96.1976 49.5914C97.1025 49.1238 98.0588 48.7656 99.0295 48.5172C99.2266 48.4588 99.4309 48.4077 99.628 48.3709C103.54 47.5086 107.795 48.3053 111.233 50.9212C117.481 55.6705 118.7 64.5851 113.955 70.84Z" fill="#BF966F"/>
<path d="M113.956 70.8398C112.467 72.8055 110.562 74.2741 108.46 75.2094C104.547 76.0644 100.307 75.2605 96.8689 72.6446C95.993 71.9796 95.2267 71.227 94.5551 70.4232L92.9201 72.5862C92.4968 72.1915 92.11 71.7751 91.7522 71.344L62.1923 110.327C63.1485 110.758 64.0754 111.292 64.9513 111.957C71.1991 116.706 72.4179 125.621 67.6738 131.876C66.1775 133.849 64.2653 135.318 62.1558 136.253C58.2437 137.101 54.0103 136.29 50.5799 133.681C46.0984 130.276 44.2227 124.715 45.2664 119.542C44.3614 120.009 43.4052 120.368 42.4345 120.616C42.2373 120.674 42.0331 120.725 41.836 120.762C37.9165 121.624 33.6686 120.828 30.2308 118.212C23.983 113.462 22.7641 104.548 27.5011 98.2929C28.9974 96.3201 30.9096 94.8512 33.0191 93.9159C36.9241 93.0683 41.1646 93.8793 44.595 96.4878C45.4709 97.1528 46.2371 97.9054 46.9088 98.7093L48.5438 96.5463C48.9671 96.9409 49.3539 97.3573 49.7116 97.7885L79.2718 58.8051C79.0309 58.6956 78.7973 58.5858 78.5637 58.4617C78.5347 58.4472 78.498 58.4252 78.4689 58.4107C77.7975 58.0599 77.1406 57.6507 76.5128 57.1756C70.265 52.4261 69.0462 43.5115 73.7903 37.2566C75.2866 35.2838 77.1916 33.8149 79.3009 32.8796C83.213 32.032 87.4464 32.8431 90.8842 35.4518C95.3657 38.8569 97.2414 44.4177 96.1977 49.591C97.1027 49.1233 98.0589 48.7652 99.0296 48.5168C99.0223 48.5678 99.0077 48.6191 99.0003 48.6702C99.2046 48.5678 99.4165 48.4655 99.6281 48.3705C103.54 47.5082 107.796 48.3049 111.233 50.9208C117.481 55.6703 118.7 64.5849 113.956 70.8398Z" fill="#D9AB7E"/>
<path d="M76.4686 59.7256L78.4974 59.9884L47.387 101.035L46.9084 98.7093L76.4686 59.7256Z" fill="#BF966F"/>
<path d="M62.9114 65.541C62.9114 65.541 62.0167 66.175 61.0674 65.243" stroke="#332B27" stroke-width="0.626" stroke-miterlimit="10"/>
<path d="M58.7466 64.1874C58.7202 64.5124 59.2147 64.8183 59.8513 64.8703C60.4879 64.9225 61.0256 64.7011 61.0523 64.3761C61.0788 64.0511 60.5842 63.7452 59.9476 63.6932C59.311 63.641 58.7733 63.8622 58.7466 64.1874Z" fill="#E89780"/>
<path d="M63.5353 63.6763C63.6287 63.855 63.8859 63.918 64.2003 63.8669C64.1352 63.6059 64.043 63.2387 63.9405 62.8228C63.5894 63.1103 63.4123 63.4527 63.5353 63.6763Z" fill="#E89780"/>
<path d="M75.6899 87.9955C75.4766 87.6047 74.937 88.0508 74.937 88.0508C74.937 88.0508 75.1258 87.3532 74.7015 87.1071C74.2773 86.8611 72.7433 87.8428 71.974 88.1766C71.2046 88.5104 69.3499 89.1461 69.0989 88.9981C68.8482 88.8502 71.0542 87.4682 70.8695 86.9642C70.6848 86.4603 67.1996 87.7702 65.99 88.3954C65.4697 88.6643 64.8117 88.9086 64.2301 89.1005L46.3812 90.9242C44.3741 91.4038 43.176 93.6586 43.7185 95.9349C44.2611 98.2115 46.3471 99.6816 48.3544 99.202L65.1184 93.5754C65.8799 93.5312 69.5055 93.3124 71.0027 93.0535C72.6799 92.7638 74.7411 91.6696 74.6944 91.2847C74.6477 90.9001 74.3028 90.981 74.3028 90.981C74.3028 90.981 75.7619 89.9864 75.6337 89.4968C75.5054 89.0072 75.2306 89.2861 75.2306 89.2861C75.2306 89.2861 75.9032 88.3863 75.6899 87.9955Z" fill="#FDAE97"/>
<path d="M55.5764 55.4879C56.6165 56.2727 56.5095 58.1713 55.3373 59.7287C54.1652 61.2861 52.3717 61.9125 51.3313 61.1277C50.2912 60.3429 50.3983 58.4443 51.5704 56.8869C52.7428 55.3295 54.5363 54.7032 55.5764 55.4879Z" fill="#332B27"/>
<path d="M57.0787 66.2736C57.1378 66.5551 56.9579 66.8312 56.6767 66.8904C56.3954 66.9495 56.1197 66.7694 56.0606 66.4878C56.0014 66.2063 56.1814 65.9302 56.4626 65.871C56.7439 65.8118 57.0196 65.992 57.0787 66.2736Z" stroke="white" stroke-width="0.554" stroke-miterlimit="10"/>
<path d="M53.1343 176.442H40.5583L40.6167 175.222L40.6241 175.098L40.8065 171.378L40.9452 168.682H48.1492L47.5288 171.378L51.6454 175.098L51.7839 175.222L53.1343 176.442Z" fill="#FDAE97"/>
<path d="M53.1343 176.442H40.5583L40.6167 175.222L40.6241 175.098L40.8067 171.378H47.529C48.9595 171.378 50.2735 171.912 51.2805 172.811C51.9667 173.424 52.5067 174.206 52.8206 175.098C52.9739 175.499 53.0761 175.931 53.1271 176.376L53.1343 176.442Z" fill="#332B27"/>
<path d="M48.0579 172.871H50.3278" stroke="white" stroke-width="0.554" stroke-miterlimit="10"/>
<path d="M48.7788 173.753H51.0487" stroke="white" stroke-width="0.554" stroke-miterlimit="10"/>
<path d="M43.251 174.421C43.782 174.421 44.2125 173.99 44.2125 173.459C44.2125 172.927 43.782 172.496 43.251 172.496C42.72 172.496 42.2896 172.927 42.2896 173.459C42.2896 173.99 42.72 174.421 43.251 174.421Z" fill="white"/>
<path d="M82.1405 144.785H70.6741L79.7579 108.263L79.7684 108.136C80.0112 104.588 82.969 101.786 86.5765 101.786C90.3477 101.786 93.4004 104.842 93.4004 108.617C93.4004 108.829 93.3899 109.035 93.3687 109.236L82.1405 144.785Z" fill="#255073"/>
<path d="M83.4135 151.326L84.7604 152.542H71.2065L71.5154 151.326L72.4383 147.482L73.2782 144.785H80.4877L79.1566 147.482L83.4135 151.326Z" fill="#FDAE97"/>
<path d="M84.7601 152.54H71.2063L71.5128 151.328L71.5419 151.196L72.4397 147.484H79.1911C81.5998 147.484 83.68 149.011 84.4536 151.196C84.614 151.62 84.7163 152.073 84.7601 152.54Z" fill="#332B27"/>
<path d="M79.6279 148.974H81.8979" stroke="white" stroke-width="0.554" stroke-miterlimit="10"/>
<path d="M80.3491 149.856H82.6191" stroke="white" stroke-width="0.554" stroke-miterlimit="10"/>
<path d="M74.8799 150.524C75.4109 150.524 75.8414 150.094 75.8414 149.562C75.8414 149.03 75.4109 148.599 74.8799 148.599C74.3489 148.599 73.9185 149.03 73.9185 149.562C73.9185 150.094 74.3489 150.524 74.8799 150.524Z" fill="white"/>
<path d="M52.217 90.2639L53.5084 83.2787" stroke="white" stroke-width="0.8433" stroke-miterlimit="10"/>
<path d="M53.1343 176.442H40.5583L40.6167 175.222L40.6241 175.098H52.8204C52.9736 175.499 53.0759 175.931 53.1269 176.376L53.1343 176.442Z" fill="#FFF1F0"/>
<path d="M84.7601 152.54H71.2063L71.5128 151.328L71.5419 151.196H84.4536C84.614 151.62 84.7163 152.073 84.7601 152.54Z" fill="#FFF1F0"/>
<path d="M173.48 73.574C173.96 68.8223 172.072 62.4252 168.014 56.4438C163.955 50.4624 158.711 46.3478 154.122 45.0433L152.272 42.3163L147.265 45.721C142.173 49.1837 143.208 59.5982 149.575 68.9829C155.943 78.3676 165.233 83.1682 170.324 79.7057L175.331 76.301L173.48 73.574Z" fill="#ADA765"/>
<path d="M175.329 76.3024C180.421 72.8398 179.386 62.425 173.019 53.0404C166.651 43.6558 157.362 38.855 152.27 42.3176C147.178 45.7802 148.213 56.1949 154.58 65.5796C160.948 74.9642 170.237 79.765 175.329 76.3024Z" fill="#C7C073"/>
<path d="M129.841 90.7276C130.112 90.4169 130.337 90.0819 130.524 89.7331L144.361 101.846C144.041 102.078 143.739 102.346 143.468 102.657C141.527 104.879 141.752 108.255 143.972 110.199C146.192 112.142 149.564 111.916 151.506 109.693C152.899 108.098 153.17 105.91 152.394 104.082C154.306 104.608 156.437 104.048 157.83 102.453C159.771 100.23 159.545 96.8538 157.326 94.9106C155.106 92.9676 151.733 93.1936 149.792 95.4157C149.521 95.7264 149.296 96.0614 149.109 96.4103L135.272 84.2971C135.592 84.0649 135.894 83.7974 136.166 83.4868C138.107 81.2646 137.881 77.8881 135.661 75.9448C133.441 74.0016 130.069 74.2278 128.128 76.45C126.734 78.0453 126.464 80.2336 127.24 82.0613C125.327 81.535 123.197 82.0954 121.803 83.6908C119.862 85.9129 120.088 89.2895 122.308 91.2327C124.527 93.1759 127.9 92.9497 129.841 90.7276Z" fill="#C7C073"/>
<path d="M35.9834 39.0622C42.2179 36.9957 46.1021 31.7831 44.659 27.4196C43.2159 23.056 36.992 21.1939 30.7575 23.2604C24.523 25.3269 20.6388 30.5394 22.0819 34.903C23.525 39.2666 29.7489 41.1287 35.9834 39.0622Z" fill="#CEE5EA"/>
<path d="M31.1097 14.8768C32.1684 16.9489 30.7937 19.5604 28.0394 20.7101C25.2852 21.8597 22.1944 21.1116 21.1357 19.0398C20.077 16.9677 21.4517 14.3562 24.206 13.2065C26.9602 12.0567 30.0512 12.8047 31.1097 14.8768Z" fill="#CEE5EA"/>
<path d="M45.9902 16.5979C46.3856 14.4441 44.1854 12.2342 41.0758 11.6619C37.9662 11.0896 35.1248 12.3717 34.7293 14.5255C34.3338 16.6792 36.534 18.8892 39.6436 19.4615C42.7532 20.0338 45.5947 18.7517 45.9902 16.5979Z" fill="#CEE5EA"/>
<path d="M19.1215 28.3863C20.8818 26.02 20.7831 22.9642 18.901 21.561C17.0189 20.1577 14.0662 20.9383 12.3059 23.3045C10.5456 25.6708 10.6444 28.7266 12.5264 30.1299C14.4085 31.5331 17.3612 30.7525 19.1215 28.3863Z" fill="#CEE5EA"/>
<path d="M362.1 72.1435L361.274 70.9622C360.889 70.4108 360.195 70.0734 359.445 70.0734H358.673L355.041 56.7772C354.832 56.0119 354.002 55.4674 353.042 55.4674H348.955H306.682C305.722 55.4674 304.89 56.0119 304.681 56.7772L301.05 70.0734H300.278C299.528 70.0734 298.834 70.4108 298.448 70.9622L297.623 72.1435H300.485L355.152 72.1438H359.239L362.1 72.1435Z" fill="#CEE5EA"/>
</svg>
