<svg width="24" height="24" viewBox="0 0 24 24" fill="none" xmlns="http://www.w3.org/2000/svg">
<path d="M10.0243 7.03698L14.5498 11.699C14.6317 11.7809 14.6727 11.8789 14.6727 11.993C14.6727 12.107 14.6317 12.2095 14.5498 12.3005L10.0243 16.9625C9.9423 17.0355 9.84664 17.0719 9.73726 17.0719C9.62789 17.0719 9.53222 17.0309 9.45026 16.949C9.3683 16.867 9.32732 16.7714 9.32732 16.662C9.32732 16.5526 9.3683 16.4569 9.45026 16.375L13.7159 12L9.45026 7.62498C9.3683 7.54302 9.32732 7.44735 9.32732 7.33798C9.32732 7.2286 9.3683 7.13294 9.45026 7.05098C9.53222 6.96902 9.62789 6.92804 9.73726 6.92804C9.84664 6.92804 9.9423 6.9645 10.0243 7.03741V7.03698Z" fill="#767676"/>
</svg>
