<svg width="24" height="24" viewBox="0 0 24 24" fill="none" xmlns="http://www.w3.org/2000/svg">
<path d="M13.9757 7.03698L9.45024 11.699C9.36828 11.7809 9.3273 11.8789 9.3273 11.993C9.3273 12.107 9.36828 12.2095 9.45024 12.3005L13.9757 16.9625C14.0577 17.0355 14.1534 17.0719 14.2627 17.0719C14.3721 17.0719 14.4678 17.0309 14.5497 16.949C14.6317 16.867 14.6727 16.7714 14.6727 16.662C14.6727 16.5526 14.6317 16.4569 14.5497 16.375L10.2841 12L14.5497 7.62498C14.6317 7.54302 14.6727 7.44735 14.6727 7.33798C14.6727 7.2286 14.6317 7.13294 14.5497 7.05098C14.4678 6.96902 14.3721 6.92804 14.2627 6.92804C14.1534 6.92804 14.0577 6.9645 13.9757 7.03741V7.03698Z" fill="#DEDEDE"/>
</svg>
