<svg width="24" height="24" viewBox="0 0 24 24" fill="none" xmlns="http://www.w3.org/2000/svg">
<path d="M18.0789 20.9459C17.3674 21.4514 12.8019 18.247 11.9275 18.2399C11.053 18.2329 6.43613 21.3637 5.7329 20.8468C5.02967 20.3299 6.68293 15.021 6.41947 14.1917C6.156 13.3625 1.73558 9.96256 2.01248 9.13761C2.28944 8.31266 7.87672 8.23603 8.58826 7.73051C9.29979 7.22505 11.1848 1.99302 12.0592 2.00001C12.9336 2.00705 14.7334 7.26865 15.4367 7.78552C16.1399 8.30234 21.7253 8.4687 21.9888 9.29796C22.2523 10.1272 17.7773 13.4557 17.5004 14.2807C17.2235 15.1056 18.7904 20.4404 18.0789 20.9459Z" fill="#F5D534"/>
</svg>
