<svg width="24" height="24" viewBox="0 0 24 24" fill="none" xmlns="http://www.w3.org/2000/svg">
<path d="M5 5C4.71667 5 4.47917 4.90417 4.2875 4.7125C4.09583 4.52083 4 4.28333 4 4C4 3.71667 4.09583 3.47917 4.2875 3.2875C4.47917 3.09583 4.71667 3 5 3H19C19.2833 3 19.5208 3.09583 19.7125 3.2875C19.9042 3.47917 20 3.71667 20 4C20 4.28333 19.9042 4.52083 19.7125 4.7125C19.5208 4.90417 19.2833 5 19 5H5ZM12 21C11.7167 21 11.4792 20.9042 11.2875 20.7125C11.0958 20.5208 11 20.2833 11 20V10.8L9.1 12.7C8.91667 12.8833 8.68333 12.975 8.4 12.975C8.11667 12.975 7.88333 12.8833 7.7 12.7C7.51667 12.5167 7.425 12.2833 7.425 12C7.425 11.7167 7.51667 11.4833 7.7 11.3L11.3 7.7C11.4 7.6 11.5083 7.52917 11.625 7.4875C11.7417 7.44583 11.8667 7.425 12 7.425C12.1333 7.425 12.2583 7.44583 12.375 7.4875C12.4917 7.52917 12.6 7.6 12.7 7.7L16.3 11.3C16.4833 11.4833 16.575 11.7167 16.575 12C16.575 12.2833 16.4833 12.5167 16.3 12.7C16.1167 12.8833 15.8833 12.975 15.6 12.975C15.3167 12.975 15.0833 12.8833 14.9 12.7L13 10.8V20C13 20.2833 12.9042 20.5208 12.7125 20.7125C12.5208 20.9042 12.2833 21 12 21Z" fill="#303030"/>
</svg>
